P2
128 99
255
0 0 0 0 0 0 0 0 0 0 0 0 0 0 0 0 0 0 0 0 0 0 0 0 0 0 0 0 0 0 0 0 0 0 0 0 0 0 0 0 0 0 0 0 0 0 0 0 0 0 0 0 0 0 0 0 0 0 0 0 0 0 0 0 0 0 0 0 0 0 0 0 0 0 0 0 0 0 0 0 0 0 0 0 0 0 0 0 0 0 0 0 0 0 0 0 0 0 0 0 0 0 0 0 0 0 0 0 0 0 0 0 0 0 0 0 0 0 0 0 0 0 0 0 0 0 0 0 
0 0 0 0 0 0 0 0 0 0 0 0 0 0 0 0 0 0 0 0 0 0 0 0 0 0 0 0 0 0 0 0 0 0 0 0 0 0 0 0 0 0 0 0 0 0 0 0 0 0 0 0 0 0 0 0 0 0 0 0 0 0 0 0 0 0 0 0 0 0 0 0 0 0 0 0 0 0 0 0 0 0 0 0 0 0 0 0 0 0 0 0 0 0 0 0 0 0 0 0 0 0 0 0 0 0 0 0 0 0 0 0 0 0 0 0 0 0 0 0 0 0 0 0 0 0 0 0 
0 0 0 0 0 0 0 0 0 0 0 0 0 0 0 0 0 0 0 0 0 0 0 0 0 0 0 0 0 0 0 0 0 0 0 0 0 0 0 0 0 0 0 0 0 0 0 0 0 0 0 0 0 0 0 0 0 0 0 0 0 0 0 0 0 0 0 0 0 0 0 0 0 0 0 0 0 0 0 0 0 0 0 0 0 0 0 0 0 0 0 0 0 0 0 0 0 0 0 0 0 0 0 0 0 0 0 0 0 0 0 0 0 0 0 0 0 0 0 0 0 0 0 0 0 0 0 0 
0 0 0 0 0 0 0 0 0 0 0 0 0 0 0 0 0 0 0 0 0 0 0 0 0 0 0 0 0 0 0 0 0 0 0 0 0 0 0 0 0 0 0 0 2 4 5 6 5 6 7 8 9 9 8 7 6 5 4 3 1 0 0 0 0 0 0 0 0 0 0 0 0 0 0 0 0 0 0 0 0 0 0 0 0 0 0 0 0 0 0 0 0 0 0 0 0 0 0 0 0 0 0 0 0 0 0 0 0 0 0 0 0 0 0 0 0 0 0 0 0 0 0 0 0 0 0 0 
0 0 0 0 0 0 0 0 0 0 0 0 0 0 0 0 0 0 0 0 0 0 0 0 0 0 0 0 0 0 0 0 0 0 0 0 0 0 0 0 1 4 6 7 8 11 18 26 35 42 48 52 54 54 53 49 43 36 27 18 11 7 5 3 0 0 0 0 0 0 0 0 0 0 0 0 0 0 0 0 0 0 0 0 0 0 0 0 0 0 0 0 0 0 0 0 0 0 0 0 0 0 0 0 0 0 0 0 0 0 0 0 0 0 0 0 0 0 0 0 0 0 0 0 0 0 0 0 
0 0 0 0 0 0 0 0 0 0 0 0 0 0 0 0 0 0 0 0 0 0 0 0 0 0 0 0 0 0 0 0 0 0 0 0 0 0 3 5 7 8 12 23 38 52 60 63 64 65 65 65 64 64 64 64 65 64 63 60 53 41 27 15 7 5 3 0 0 0 0 0 0 0 0 0 0 0 0 0 0 0 0 0 0 0 0 0 0 0 0 0 0 0 0 0 0 0 0 0 0 0 0 0 0 0 0 0 0 0 0 0 0 0 0 0 0 0 0 0 0 0 0 0 0 0 0 0 
0 0 0 0 0 0 0 0 0 0 0 0 0 0 0 0 0 0 0 0 0 0 0 0 0 0 0 0 0 0 0 0 0 0 0 0 2 7 8 8 17 35 53 62 65 65 65 64 65 65 66 66 66 66 66 66 66 65 64 64 64 63 61 55 43 26 13 6 4 0 0 0 0 0 0 0 0 0 0 0 0 0 0 0 0 0 0 0 0 0 0 0 0 0 0 0 0 0 0 0 0 0 0 0 0 0 0 0 0 0 0 0 0 0 0 0 0 0 0 0 0 0 0 0 0 0 0 0 
0 0 0 0 0 0 0 0 0 0 0 0 0 0 0 0 0 0 0 0 0 0 0 0 0 0 0 0 0 0 0 0 0 0 2 8 8 8 21 43 59 64 65 65 65 65 65 63 61 60 61 63 62 58 57 61 65 67 67 66 65 64 64 64 64 61 53 35 16 7 4 0 0 0 0 0 0 0 0 0 0 0 0 0 0 0 0 0 0 0 0 0 0 0 0 0 0 0 0 0 0 0 0 0 0 0 0 0 0 0 0 0 0 0 0 0 0 0 0 0 0 0 0 0 0 0 0 0 
0 0 0 0 0 0 0 0 0 0 0 0 0 0 0 0 0 0 0 0 0 0 0 0 0 0 0 0 0 0 0 0 1 9 8 7 20 45 60 63 63 64 64 65 64 62 59 56 53 52 53 53 52 50 51 52 55 59 65 68 67 66 65 65 64 64 64 63 55 36 15 7 3 0 0 0 0 0 0 0 0 0 0 0 0 0 0 0 0 0 0 0 0 0 0 0 0 0 0 0 0 0 0 0 0 0 0 0 0 0 0 0 0 0 0 0 0 0 0 0 0 0 0 0 0 0 0 0 
0 0 0 0 0 0 0 0 0 0 0 0 0 0 0 0 0 0 0 0 0 0 0 0 0 0 0 0 0 0 0 7 8 7 13 39 59 63 62 63 64 65 64 59 56 54 52 49 48 47 47 50 50 49 50 51 52 52 56 61 66 68 68 67 66 65 64 64 65 63 53 28 10 6 0 0 0 0 0 0 0 0 0 0 0 0 0 0 0 0 0 0 0 0 0 0 0 0 0 0 0 0 0 0 0 0 0 0 0 0 0 0 0 0 0 0 0 0 0 0 0 0 0 0 0 0 0 0 
0 0 0 0 0 0 0 0 0 0 0 0 0 0 0 0 0 0 0 0 0 0 0 0 0 0 0 0 0 3 9 7 8 28 55 62 63 63 64 65 65 62 57 56 54 52 50 47 46 46 46 47 47 47 48 50 50 49 51 53 58 63 67 68 68 67 66 65 64 65 65 61 42 15 7 2 0 0 0 0 0 0 0 0 0 0 0 0 0 0 0 0 0 0 0 0 0 0 0 0 0 0 0 0 0 0 0 0 0 0 0 0 0 0 0 0 0 0 0 0 0 0 0 0 0 0 0 0 
0 0 0 0 0 0 0 0 0 0 0 0 0 0 0 0 0 0 0 0 0 0 0 0 0 0 0 0 7 8 6 16 46 61 62 63 64 65 66 64 60 58 55 53 52 51 51 49 49 48 45 46 45 45 49 51 51 51 51 52 54 57 61 65 67 68 68 67 66 65 65 65 64 53 23 8 3 0 0 0 0 0 0 0 0 0 0 0 0 0 0 0 0 0 0 0 0 0 0 0 0 0 0 0 0 0 0 0 0 0 0 0 0 0 0 0 0 0 0 0 0 0 0 0 0 0 0 0 
0 0 0 0 0 0 0 0 0 0 0 0 0 0 0 0 0 0 0 0 0 0 0 0 0 0 1 8 6 6 26 55 61 63 64 65 66 66 62 59 57 56 54 53 52 51 51 50 50 47 44 43 43 43 46 49 49 50 51 51 52 55 58 60 63 65 67 68 68 66 65 65 64 63 57 29 8 4 0 0 0 0 0 0 0 0 0 0 0 0 0 0 0 0 0 0 0 0 0 0 0 0 0 0 0 0 0 0 0 0 0 0 0 0 0 0 0 0 0 0 0 0 0 0 0 0 0 0 
0 0 0 0 0 0 0 0 0 0 0 0 0 0 0 0 0 0 0 0 0 0 0 0 0 3 8 6 8 35 58 61 64 65 66 67 65 61 58 56 56 55 53 52 50 50 50 50 48 46 43 42 41 41 43 46 50 51 52 52 52 53 54 57 59 60 62 65 67 68 67 66 64 63 63 58 33 9 4 0 0 0 0 0 0 0 0 0 0 0 0 0 0 0 0 0 0 0 0 0 0 0 0 0 0 0 0 0 0 0 0 0 0 0 0 0 0 0 0 0 0 0 0 0 0 0 0 0 
0 0 0 0 0 0 0 0 0 0 0 0 0 0 0 0 0 0 0 0 0 0 0 0 4 7 5 11 40 58 61 64 66 67 65 62 59 57 57 56 54 53 52 51 50 50 47 44 44 42 41 40 39 41 42 42 45 49 50 50 50 50 52 54 55 56 58 60 61 64 67 67 66 65 63 63 59 36 10 4 0 0 0 0 0 0 0 0 0 0 0 0 0 0 0 0 0 0 0 0 0 0 0 0 0 0 0 0 0 0 0 0 0 0 0 0 0 0 0 0 0 0 0 0 0 0 0 0 
0 0 0 0 0 0 0 0 0 0 0 0 0 0 0 0 0 0 0 0 0 0 1 6 6 5 15 44 57 61 65 66 66 63 59 58 57 57 56 54 52 51 50 47 46 44 43 42 41 41 41 40 39 42 43 43 42 43 46 49 49 49 49 51 53 54 55 55 57 58 61 65 67 66 65 63 63 60 41 12 4 0 0 0 0 0 0 0 0 0 0 0 0 0 0 0 0 0 0 0 0 0 0 0 0 0 0 0 0 0 0 0 0 0 0 0 0 0 0 0 0 0 0 0 0 0 0 0 
0 0 0 0 0 0 0 0 0 0 0 0 0 0 0 0 0 0 0 0 0 1 5 5 5 19 48 56 61 65 66 65 60 58 56 56 55 54 53 52 51 49 47 46 43 41 41 39 40 40 40 39 38 40 41 41 41 41 41 43 44 44 46 48 50 50 51 53 54 55 56 58 62 66 66 65 64 63 59 44 13 3 0 0 0 0 0 0 0 0 0 0 0 0 0 0 0 0 0 0 0 0 0 0 0 0 0 0 0 0 0 0 0 0 0 0 0 0 0 0 0 0 0 0 0 0 0 0 
0 0 0 0 0 0 0 0 0 0 0 0 0 0 0 0 0 0 0 0 2 5 4 6 24 51 57 61 66 67 64 57 55 55 55 54 51 50 50 49 49 48 45 42 40 40 38 39 40 39 39 37 37 40 40 41 41 41 41 42 43 43 44 45 46 47 48 49 50 51 52 54 55 60 64 65 65 64 62 60 46 12 2 0 0 0 0 0 0 0 0 0 0 0 0 0 0 0 0 0 0 0 0 0 0 0 0 0 0 0 0 0 0 0 0 0 0 0 0 0 0 0 0 0 0 0 0 0 
0 0 0 0 0 0 0 0 0 0 0 0 0 0 0 0 0 0 0 1 5 4 6 27 52 57 60 65 66 62 56 54 54 53 52 49 48 48 47 46 43 42 41 41 41 40 39 39 40 39 39 36 37 40 39 40 40 40 40 41 42 42 42 43 42 42 44 47 49 49 48 50 52 54 58 63 65 65 64 62 59 43 9 1 0 0 0 0 0 0 0 0 0 0 0 0 0 0 0 0 0 0 0 0 0 0 0 0 0 0 0 0 0 0 0 0 0 0 0 0 0 0 0 0 0 0 0 0 
0 0 0 0 0 0 0 0 0 0 0 0 0 0 0 0 0 0 1 5 4 6 29 53 56 59 64 66 61 55 54 52 51 51 49 46 45 45 44 42 41 41 40 40 39 38 38 38 38 39 37 35 35 40 40 39 39 40 40 40 40 40 40 40 41 41 42 44 47 48 48 47 49 51 53 56 62 65 65 64 61 58 38 6 0 0 0 0 0 0 0 0 0 0 0 0 0 0 0 0 0 0 0 0 0 0 0 0 0 0 0 0 0 0 0 0 0 0 0 0 0 0 0 0 0 0 0 0 
0 0 0 0 0 0 0 0 0 0 0 0 0 0 0 0 0 0 4 4 6 28 51 55 58 63 66 60 55 53 51 50 49 48 46 44 44 43 41 41 39 38 38 37 37 37 37 37 38 37 34 34 35 39 39 40 40 40 40 40 40 39 38 38 39 40 41 43 44 46 47 46 47 49 51 52 55 60 65 64 63 59 55 29 3 0 0 0 0 0 0 0 0 0 0 0 0 0 0 0 0 0 0 0 0 0 0 0 0 0 0 0 0 0 0 0 0 0 0 0 0 0 0 0 0 0 0 0 
0 0 0 0 0 0 0 0 0 0 0 0 0 0 0 0 0 3 4 5 25 49 53 56 61 65 60 54 52 50 49 49 48 46 43 43 42 40 40 39 37 36 37 37 38 37 37 37 37 34 33 35 35 36 38 39 39 39 40 40 41 39 39 38 37 38 40 41 43 44 44 44 44 45 48 50 52 54 60 65 65 62 58 50 18 1 0 0 0 0 0 0 0 0 0 0 0 0 0 0 0 0 0 0 0 0 0 0 0 0 0 0 0 0 0 0 0 0 0 0 0 0 0 0 0 0 0 0 
0 0 0 0 0 0 0 0 0 0 0 0 0 0 0 0 1 4 4 20 47 51 55 60 64 60 53 52 50 48 48 46 44 43 42 41 40 40 39 37 37 37 38 38 37 36 35 35 34 33 33 35 35 36 36 35 36 37 36 36 38 39 39 37 36 35 36 41 41 42 43 43 43 43 45 48 49 51 53 61 66 64 60 55 42 8 0 0 0 0 0 0 0 0 0 0 0 0 0 0 0 0 0 0 0 0 0 0 0 0 0 0 0 0 0 0 0 0 0 0 0 0 0 0 0 0 0 0 
0 0 0 0 0 0 0 0 0 0 0 0 0 0 0 0 3 4 16 44 50 54 58 62 61 53 51 49 48 48 45 43 43 43 41 40 39 38 37 37 36 35 34 34 34 34 34 35 34 34 35 35 34 35 34 33 34 34 35 35 36 37 37 37 36 35 35 36 40 41 41 41 41 42 44 46 50 49 49 53 63 65 62 58 52 28 2 0 0 0 0 0 0 0 0 0 0 0 0 0 0 0 0 0 0 0 0 0 0 0 0 0 0 0 0 0 0 0 0 0 0 0 0 0 0 0 0 0 
0 0 0 0 0 0 0 0 0 0 0 0 0 0 0 2 3 8 36 48 52 56 61 61 55 50 49 47 48 47 44 42 42 41 39 38 38 38 37 35 34 33 34 34 33 33 34 34 34 34 36 35 34 34 33 33 32 33 33 34 35 35 36 37 37 36 35 35 37 39 39 40 41 41 43 45 49 48 48 49 56 63 63 60 56 44 10 0 0 0 0 0 0 0 0 0 0 0 0 0 0 0 0 0 0 0 0 0 0 0 0 0 0 0 0 0 0 0 0 0 0 0 0 0 0 0 0 0 
0 0 0 0 0 0 0 0 0 0 0 0 0 0 0 2 4 26 46 50 54 59 59 57 50 47 46 46 48 45 43 41 40 40 39 38 38 36 35 34 34 34 34 33 33 33 34 34 33 34 36 36 34 35 34 34 34 34 33 33 33 34 35 35 36 37 36 35 35 37 38 40 41 41 42 44 47 47 47 46 49 59 62 61 57 50 24 1 0 0 0 0 0 0 0 0 0 0 0 0 0 0 0 0 0 0 0 0 0 0 0 0 0 0 0 0 0 0 0 0 0 0 0 0 0 0 0 0 
0 0 0 0 0 0 0 0 0 0 0 0 0 0 1 2 14 41 47 51 57 58 55 53 47 45 45 47 47 44 42 40 40 38 38 37 35 35 35 34 34 33 33 32 33 34 35 35 34 35 37 38 36 36 34 34 35 35 34 33 32 33 34 34 35 36 36 35 35 36 36 39 41 40 41 44 46 47 46 44 46 54 60 61 58 53 38 5 0 0 0 0 0 0 0 0 0 0 0 0 0 0 0 0 0 0 0 0 0 0 0 0 0 0 0 0 0 0 0 0 0 0 0 0 0 0 0 0 
0 0 0 0 0 0 0 0 0 0 0 0 0 0 2 5 30 44 50 54 58 54 54 49 44 44 45 47 45 44 40 39 38 38 38 35 35 35 35 34 33 32 32 33 33 34 35 35 35 34 35 37 37 34 32 32 33 35 35 34 32 32 33 34 35 35 36 37 36 36 36 37 40 41 42 43 46 47 46 43 44 51 57 60 59 55 46 13 0 0 0 0 0 0 0 0 0 0 0 0 0 0 0 0 0 0 0 0 0 0 0 0 0 0 0 0 0 0 0 0 0 0 0 0 0 0 0 0 
0 0 0 0 0 0 0 0 0 0 0 0 0 0 2 13 40 46 51 56 56 53 51 46 43 44 45 45 44 41 40 39 38 38 36 35 35 35 34 33 32 32 32 33 33 34 34 35 34 33 33 34 36 33 31 30 31 33 31 32 33 33 33 33 35 35 36 37 37 36 35 36 39 40 41 44 46 45 44 43 42 49 54 59 59 56 49 21 0 0 0 0 0 0 0 0 0 0 0 0 0 0 0 0 0 0 0 0 0 0 0 0 0 0 0 0 0 0 0 0 0 0 0 0 0 0 0 0 
0 0 0 0 0 0 0 0 0 0 0 0 0 1 2 24 44 48 52 57 52 51 48 44 43 43 43 44 42 41 40 39 39 37 34 35 36 35 33 32 33 34 33 33 33 33 33 33 34 33 33 33 35 33 31 30 30 31 31 31 31 32 33 33 35 35 35 37 39 38 36 36 38 39 40 44 46 42 43 42 41 47 53 58 59 56 51 29 1 0 0 0 0 0 0 0 0 0 0 0 0 0 0 0 0 0 0 0 0 0 0 0 0 0 0 0 0 0 0 0 0 0 0 0 0 0 0 0 
0 0 0 0 0 0 0 0 0 0 0 0 0 1 5 34 45 49 55 55 48 48 46 42 42 41 43 43 40 40 40 40 39 37 36 37 36 34 33 34 35 34 33 33 34 33 32 33 33 32 31 31 34 31 29 28 29 30 31 31 31 32 33 34 35 36 36 36 38 39 38 37 38 39 39 43 44 42 41 42 41 45 51 57 59 56 52 35 3 0 0 0 0 0 0 0 0 0 0 0 0 0 0 0 0 0 0 0 0 0 0 0 0 0 0 0 0 0 0 0 0 0 0 0 0 0 0 0 
0 0 0 0 0 0 0 0 0 0 0 0 0 1 11 40 46 51 55 50 45 46 44 41 40 40 41 41 39 39 40 40 39 37 37 37 35 33 34 35 33 31 32 33 33 32 31 31 30 30 29 29 32 29 28 28 29 30 29 30 32 34 33 34 36 36 37 37 37 37 39 39 38 39 39 41 42 42 40 39 40 45 52 56 59 57 53 40 5 0 0 0 0 0 0 0 0 0 0 0 0 0 0 0 0 0 0 0 0 0 0 0 0 0 0 0 0 0 0 0 0 0 0 0 0 0 0 0 
0 0 0 0 0 0 0 0 0 0 0 0 0 2 17 42 48 53 53 47 44 45 45 41 39 39 40 39 38 38 40 40 39 38 36 36 34 34 34 32 31 31 32 32 32 31 29 29 29 30 29 30 30 29 28 27 27 28 29 30 31 33 34 34 35 36 36 38 38 37 38 39 39 39 40 41 40 40 39 38 38 44 51 54 59 58 54 45 9 0 0 0 0 0 0 0 0 0 0 0 0 0 0 0 0 0 0 0 0 0 0 0 0 0 0 0 0 0 0 0 0 0 0 0 0 0 0 0 
0 0 0 0 0 0 0 0 0 0 0 0 0 2 22 44 50 54 51 45 43 45 45 40 38 38 39 39 38 38 40 40 39 38 36 35 35 35 33 30 31 31 30 30 30 30 29 29 29 29 31 31 31 30 30 29 29 29 29 30 30 30 33 33 34 35 35 36 39 38 38 39 40 39 39 41 38 37 38 38 39 44 51 55 59 59 55 48 12 0 0 0 0 0 0 0 0 0 0 0 0 0 0 0 0 0 0 0 0 0 0 0 0 0 0 0 0 0 0 0 0 0 0 0 0 0 0 0 
0 0 0 0 0 0 0 0 0 0 0 0 0 2 26 45 51 53 50 47 44 44 44 41 38 37 38 38 36 37 40 40 39 37 35 36 36 35 36 33 32 31 30 30 29 29 29 29 30 30 32 32 31 30 29 30 29 29 30 30 29 30 32 32 33 34 34 37 41 41 39 39 40 40 39 40 37 37 37 36 38 46 51 55 59 60 56 51 17 0 0 0 0 0 0 0 0 0 0 0 0 0 0 0 0 0 0 0 0 0 0 0 0 0 0 0 0 0 0 0 0 0 0 0 0 0 0 0 
0 0 0 0 0 0 0 0 0 0 0 0 1 3 28 47 52 54 50 48 45 45 45 42 39 37 37 36 35 37 41 40 38 36 36 37 37 36 37 38 37 34 31 31 30 30 31 31 30 31 32 32 32 30 29 30 28 28 30 30 29 30 31 31 33 35 37 39 40 41 41 41 41 41 40 43 38 37 36 36 39 46 50 54 60 60 58 54 21 1 0 0 0 0 0 0 0 0 0 0 0 0 0 0 0 0 0 0 0 0 0 0 0 0 0 0 0 0 0 0 0 0 0 0 0 0 0 0 
0 0 0 0 0 0 0 0 0 0 0 0 1 4 30 48 53 55 51 49 46 46 45 42 40 37 37 36 35 37 42 40 38 38 39 38 36 33 31 31 30 30 33 34 33 32 31 32 32 33 33 33 34 30 30 30 29 27 30 29 29 30 33 34 33 32 31 31 33 35 37 39 43 45 42 44 42 38 36 37 41 47 50 53 59 61 58 54 27 1 0 0 0 0 0 0 0 0 0 0 0 0 0 0 0 0 0 0 0 0 0 0 0 0 0 0 0 0 0 0 0 0 0 0 0 0 0 0 
0 0 0 0 0 0 0 0 0 0 0 0 1 4 31 49 54 55 51 50 48 47 46 43 41 38 36 34 34 38 42 40 41 41 37 35 32 28 26 27 27 27 28 29 31 34 33 31 31 32 33 33 35 33 31 30 28 27 28 28 30 34 33 31 30 29 30 29 30 32 33 34 37 42 46 46 47 42 38 40 43 47 49 51 58 62 59 55 32 2 0 0 0 0 0 0 0 0 0 0 0 0 0 0 0 0 0 0 0 0 0 0 0 0 0 0 0 0 0 0 0 0 0 0 0 0 0 0 
0 0 0 0 0 0 0 0 0 0 0 0 1 4 32 50 55 55 51 50 48 47 47 46 43 39 37 34 35 41 43 42 43 37 32 30 29 27 26 27 27 27 28 28 29 31 34 33 30 31 33 33 35 34 32 31 29 28 28 29 34 30 30 29 29 31 31 31 31 33 33 33 34 37 43 50 49 46 41 42 44 45 47 50 54 61 60 57 37 3 0 0 0 0 0 0 0 0 0 0 0 0 0 0 0 0 0 0 0 0 0 0 0 0 0 0 0 0 0 0 0 0 0 0 0 0 0 0 
0 0 0 0 0 0 0 0 0 0 0 0 2 4 33 51 55 55 51 49 47 46 46 46 45 41 39 37 37 42 45 45 36 31 30 30 29 28 28 29 29 28 28 29 30 31 31 33 31 31 32 34 36 37 36 33 31 29 27 33 31 29 28 28 30 31 31 32 32 33 35 36 36 39 42 49 50 48 45 44 43 44 45 48 51 59 61 57 42 5 0 0 0 0 0 0 0 0 0 0 0 0 0 0 0 0 0 0 0 0 0 0 0 0 0 0 0 0 0 0 0 0 0 0 0 0 0 0 
0 0 0 0 0 0 0 0 0 0 0 0 2 4 34 51 56 56 49 47 46 46 44 44 44 43 40 41 43 43 47 42 33 30 30 28 28 28 29 29 29 29 28 28 29 30 31 32 32 31 34 36 38 38 39 34 31 29 29 34 29 27 27 29 31 32 32 33 33 35 36 35 38 42 44 44 48 47 48 44 42 42 43 45 49 56 60 57 46 8 0 0 0 0 0 0 0 0 0 0 0 0 0 0 0 0 0 0 0 0 0 0 0 0 0 0 0 0 0 0 0 0 0 0 0 0 0 0 
0 0 0 0 0 0 0 0 0 0 0 0 2 5 35 52 56 56 46 45 46 45 44 42 43 43 41 40 45 46 48 41 36 33 31 30 29 29 29 28 28 29 29 29 29 30 32 33 33 32 34 37 40 38 40 35 31 29 32 33 27 26 28 30 31 32 32 33 33 35 36 36 38 40 40 40 43 47 48 44 41 41 42 42 45 53 60 57 48 11 0 0 0 0 0 0 0 0 0 0 0 0 0 0 0 0 0 0 0 0 0 0 0 0 0 0 0 0 0 0 0 0 0 0 0 0 0 0 
0 0 0 0 0 0 0 0 0 0 0 0 2 5 35 52 57 56 45 46 45 44 42 41 41 40 40 41 44 44 45 42 39 36 33 32 31 30 29 29 29 30 30 29 29 30 31 33 32 32 35 38 38 36 38 38 34 32 32 30 26 27 29 30 31 32 32 32 32 34 36 36 37 38 39 39 41 45 46 43 40 39 39 39 41 50 59 57 49 15 0 0 0 0 0 0 0 0 0 0 0 0 0 0 0 0 0 0 0 0 0 0 0 0 0 0 0 0 0 0 0 0 0 0 0 0 0 0 
0 0 0 0 0 0 0 0 0 0 0 0 2 5 36 54 58 56 44 45 44 42 40 38 38 39 39 41 42 41 41 38 35 34 32 31 30 30 29 27 28 29 30 30 30 30 30 32 33 33 35 34 35 36 36 37 35 34 32 28 27 28 29 30 30 30 30 30 31 33 34 34 36 37 38 37 41 45 46 43 39 38 37 39 39 46 57 57 50 18 0 0 0 0 0 0 0 0 0 0 0 0 0 0 0 0 0 0 0 0 0 0 0 0 0 0 0 0 0 0 0 0 0 0 0 0 0 0 
0 0 0 0 0 0 0 0 0 0 0 0 2 5 36 54 58 54 42 43 41 39 36 35 36 37 38 42 42 40 39 37 33 34 31 30 29 29 29 28 27 28 29 30 29 29 30 30 31 32 36 35 34 34 34 37 36 36 33 28 28 29 30 29 27 28 29 30 31 32 33 34 35 36 36 36 41 45 45 44 40 37 36 37 37 42 52 56 51 20 0 0 0 0 0 0 0 0 0 0 0 0 0 0 0 0 0 0 0 0 0 0 0 0 0 0 0 0 0 0 0 0 0 0 0 0 0 0 
0 0 0 0 0 0 0 0 0 0 0 0 2 5 36 54 58 51 40 40 39 37 34 33 34 34 35 41 42 40 38 37 33 32 30 28 28 28 28 27 28 29 28 28 28 28 30 29 29 33 38 40 36 33 33 31 38 35 32 29 30 30 30 26 27 28 29 30 31 32 33 33 34 36 35 37 41 44 43 45 43 37 35 37 37 41 46 52 52 22 0 0 0 0 0 0 0 0 0 0 0 0 0 0 0 0 0 0 0 0 0 0 0 0 0 0 0 0 0 0 0 0 0 0 0 0 0 0 
0 0 0 0 0 0 0 0 0 0 0 0 2 5 35 54 58 49 40 38 36 35 33 34 34 33 36 39 41 40 38 37 34 32 30 29 29 29 29 28 28 28 28 29 29 30 30 28 27 32 37 39 33 30 31 27 33 37 30 31 30 29 28 27 28 29 30 31 31 32 32 32 33 34 34 37 42 44 45 46 45 37 35 36 37 41 45 52 52 22 0 0 0 0 0 0 0 0 0 0 0 0 0 0 0 0 0 0 0 0 0 0 0 0 0 0 0 0 0 0 0 0 0 0 0 0 0 0 
0 0 0 0 0 0 0 0 0 0 0 0 2 5 33 53 57 46 39 36 36 36 34 34 34 34 37 38 40 40 39 37 34 32 30 29 29 29 29 29 28 27 27 28 29 29 30 27 27 33 37 35 28 26 29 26 28 39 28 30 30 29 27 28 29 29 30 31 31 32 32 32 33 33 34 39 45 47 45 45 45 37 35 35 37 40 45 54 50 21 0 0 0 0 0 0 0 0 0 0 0 0 0 0 0 0 0 0 0 0 0 0 0 0 0 0 0 0 0 0 0 0 0 0 0 0 0 0 
0 0 0 0 0 0 0 0 0 0 0 0 1 5 30 53 56 45 39 36 36 36 34 34 34 34 37 37 38 39 40 37 34 33 31 29 29 30 30 29 28 28 26 26 27 28 29 26 28 34 36 29 27 27 29 25 26 36 34 29 29 27 27 29 29 29 30 31 32 32 31 31 33 32 33 40 47 45 43 45 44 36 35 35 36 39 45 53 49 20 0 0 0 0 0 0 0 0 0 0 0 0 0 0 0 0 0 0 0 0 0 0 0 0 0 0 0 0 0 0 0 0 0 0 0 0 0 0 
0 0 0 0 0 0 0 0 0 0 0 0 1 5 28 52 56 45 39 37 35 35 34 33 33 32 36 38 38 38 39 38 34 33 31 30 30 31 31 30 29 28 27 26 27 28 28 24 28 34 35 28 28 29 31 27 25 29 37 30 28 27 27 29 29 30 30 31 31 30 31 32 33 32 34 40 45 43 41 44 43 36 35 35 36 39 46 52 46 17 0 0 0 0 0 0 0 0 0 0 0 0 0 0 0 0 0 0 0 0 0 0 0 0 0 0 0 0 0 0 0 0 0 0 0 0 0 0 
0 0 0 0 0 0 0 0 0 0 0 0 0 4 25 50 55 47 39 36 35 35 34 34 33 31 35 38 39 38 39 38 33 32 31 30 31 31 31 31 29 27 26 26 26 27 26 25 30 35 31 28 28 31 33 29 27 26 35 33 32 29 28 29 30 30 30 30 30 30 30 32 32 31 34 39 42 41 40 44 43 35 36 35 35 38 47 51 43 15 0 0 0 0 0 0 0 0 0 0 0 0 0 0 0 0 0 0 0 0 0 0 0 0 0 0 0 0 0 0 0 0 0 0 0 0 0 0 
0 0 0 0 0 0 0 0 0 2 1 0 0 4 22 48 53 47 40 36 34 35 34 34 33 31 33 38 40 38 39 37 33 32 31 31 31 30 30 30 29 29 27 26 28 31 30 29 31 33 29 27 28 33 33 29 28 26 30 36 36 35 33 32 30 31 32 31 30 30 31 32 31 31 35 39 41 41 42 44 42 35 35 34 34 38 48 49 39 13 0 0 0 0 0 0 0 0 0 0 0 0 0 0 0 0 0 0 0 0 0 0 0 0 0 0 0 0 0 0 0 0 0 0 0 0 0 0 
0 0 0 0 0 0 0 0 0 0 2 1 0 3 18 45 53 47 39 36 33 34 34 34 33 30 34 39 40 38 38 37 33 31 32 31 31 30 30 30 32 32 31 29 29 31 32 30 33 30 29 27 28 32 31 30 29 28 28 38 39 40 37 33 32 30 31 32 31 29 30 31 30 31 34 39 40 40 42 45 43 36 34 33 34 38 48 47 36 11 0 0 0 0 0 0 0 0 0 0 0 0 0 0 0 0 0 0 0 0 0 0 0 0 0 0 0 0 0 0 0 0 0 0 0 0 0 0 
0 0 0 0 0 0 0 0 0 0 1 3 0 2 14 42 51 47 38 35 32 33 35 34 33 31 34 39 39 39 39 38 33 31 32 31 30 30 30 31 32 31 30 30 33 36 34 31 35 28 28 27 27 33 31 29 29 29 30 39 40 38 35 36 36 35 34 33 31 29 30 31 31 33 34 40 42 40 41 45 45 39 33 33 34 40 48 46 33 9 0 0 0 0 0 0 0 0 0 0 0 0 0 0 0 0 0 0 0 0 0 0 0 0 0 0 0 0 0 0 0 0 0 0 0 0 0 0 
0 0 0 0 0 0 0 0 0 0 0 3 1 2 11 37 50 48 39 35 34 33 35 34 34 31 34 38 39 40 42 42 38 33 32 31 31 31 33 33 33 33 32 34 32 32 31 34 35 28 27 27 27 34 30 28 28 27 30 38 43 38 35 35 37 41 44 43 41 39 40 40 40 41 43 45 41 39 43 46 46 43 35 34 37 44 49 43 31 6 0 0 0 2 1 0 0 0 0 0 0 0 0 0 0 0 0 0 0 0 0 0 0 0 0 0 0 0 0 0 0 0 0 0 0 0 0 0 
0 0 0 0 0 0 0 0 0 0 0 2 1 2 8 33 49 50 40 37 37 32 33 34 34 33 35 38 39 40 42 42 42 42 38 36 36 37 38 37 36 34 29 29 32 32 31 34 35 26 27 28 28 33 30 26 27 27 29 39 43 36 35 35 37 40 47 49 47 49 50 48 46 41 43 44 44 42 43 45 46 44 40 38 36 47 46 41 28 3 0 0 1 0 0 0 0 0 0 0 0 0 0 0 0 0 0 0 0 0 0 0 0 0 0 0 0 0 0 0 0 0 0 0 0 0 0 0 
0 0 0 0 0 0 0 0 0 0 0 2 1 2 6 29 46 52 45 38 36 33 31 34 35 38 37 39 39 40 41 40 38 39 40 41 41 39 37 36 36 33 32 33 32 31 31 34 36 29 28 30 30 34 31 27 27 30 33 41 42 37 34 35 37 41 47 48 48 50 49 47 44 41 42 41 45 47 45 45 46 44 43 43 47 48 42 41 24 2 0 0 1 0 0 0 0 0 0 0 0 0 0 0 0 0 0 0 0 0 0 0 0 0 0 0 0 0 0 0 0 0 0 0 0 0 0 0 
0 0 0 0 0 0 0 0 0 0 0 2 2 3 4 24 43 51 50 40 36 33 32 36 40 38 39 41 40 40 41 42 42 42 40 40 40 40 40 39 36 33 31 31 31 31 32 33 36 33 29 30 31 35 32 28 29 32 34 38 37 37 36 37 39 43 47 49 48 48 46 46 48 48 47 48 49 50 51 51 50 49 48 50 53 47 39 40 19 1 0 0 0 0 0 0 0 0 0 0 0 0 0 0 0 0 0 0 0 0 0 0 0 0 0 0 0 0 0 0 0 0 0 0 0 0 0 0 
0 0 0 0 0 0 0 0 0 0 0 2 2 3 4 19 41 50 51 44 38 38 39 39 42 41 41 43 42 40 44 47 48 50 49 46 45 44 40 36 33 31 30 29 28 29 32 36 37 31 31 32 30 35 31 29 29 32 35 35 36 34 36 38 40 45 50 52 51 50 49 50 50 47 43 46 46 49 52 53 56 58 56 57 59 42 42 38 11 2 0 0 0 0 0 0 0 0 0 0 0 0 0 0 0 0 0 0 0 0 0 0 0 0 0 0 0 0 0 0 0 0 0 0 0 0 0 0 
0 0 0 0 0 0 0 0 0 0 0 2 3 2 2 12 39 50 51 49 45 48 45 45 46 46 46 44 43 42 45 49 50 51 51 47 48 47 42 36 35 34 31 29 29 30 35 36 32 29 30 31 32 38 33 28 27 30 33 33 34 36 36 38 39 40 44 47 49 51 50 48 45 42 43 45 46 47 51 55 56 58 59 58 52 42 42 31 5 1 1 0 0 0 0 0 0 0 0 0 0 0 0 0 0 0 0 0 0 0 0 0 0 0 0 0 0 0 0 0 0 0 0 0 0 0 0 0 
0 0 0 0 0 0 0 0 0 0 0 1 3 2 2 3 21 46 51 49 50 56 58 52 51 50 47 45 44 46 49 51 50 49 51 49 47 47 45 39 36 35 35 31 30 30 33 35 32 29 30 32 32 37 38 31 26 28 30 33 34 34 37 38 38 38 39 43 45 45 42 44 44 43 44 47 47 47 50 51 53 55 55 54 48 42 41 33 5 1 2 0 0 0 0 0 0 0 0 0 0 0 0 0 0 0 0 0 0 0 0 0 0 0 0 0 0 0 0 0 0 0 0 0 0 0 0 0 
0 0 0 0 0 0 0 0 0 0 0 1 2 1 1 3 12 41 53 51 52 56 57 56 55 53 51 49 43 42 45 49 52 50 52 52 51 50 45 38 35 36 36 34 32 32 35 34 33 31 30 33 33 38 37 32 27 26 28 31 34 34 34 37 38 39 41 43 44 42 40 40 39 43 45 47 45 46 46 47 50 54 51 46 40 43 42 22 2 1 2 0 0 0 0 0 0 0 0 0 0 0 0 0 0 0 0 0 0 0 0 0 0 0 0 0 0 0 0 0 0 0 0 0 0 0 0 0 
0 0 0 0 0 0 0 0 0 0 0 2 2 1 1 2 7 33 52 50 50 52 52 48 54 55 52 49 45 43 42 45 47 49 51 52 50 47 42 40 37 36 37 37 33 33 36 33 32 32 33 33 31 36 39 36 28 28 30 32 35 36 35 35 33 33 38 42 44 44 43 40 41 46 47 47 45 48 45 45 48 51 44 41 42 43 39 11 1 1 1 1 0 0 0 0 0 0 0 0 0 0 0 0 0 0 0 0 0 0 0 0 0 0 0 0 0 0 0 0 0 0 0 0 0 0 0 0 
0 0 0 0 0 0 0 0 0 0 0 1 1 1 1 2 5 21 48 51 49 46 49 48 45 49 49 47 46 47 43 41 44 46 46 47 46 44 42 41 35 35 34 33 32 34 37 33 34 37 37 35 32 34 39 39 31 31 33 32 34 37 39 40 36 30 31 35 37 38 41 40 41 47 49 50 48 47 46 46 43 44 43 40 41 42 28 4 2 1 1 1 1 0 0 0 0 0 0 0 0 0 0 0 0 0 0 0 0 0 0 0 0 0 0 0 0 0 0 0 0 0 0 0 0 0 0 0 
0 0 0 0 0 0 0 0 0 0 0 1 1 0 1 2 5 11 41 47 46 45 47 48 47 46 45 43 44 48 48 43 40 41 46 46 45 43 42 36 31 31 33 35 34 35 40 35 38 39 39 37 34 33 40 41 35 33 34 35 35 40 41 41 39 32 29 30 33 35 36 41 46 46 47 51 51 50 49 49 46 45 40 35 37 41 14 3 1 1 1 0 1 0 0 0 0 0 0 0 0 0 0 0 0 0 0 0 0 0 0 0 0 0 0 0 0 0 0 0 0 0 0 0 0 0 0 0 
0 0 0 0 0 0 0 0 0 0 0 0 1 1 0 2 4 6 29 43 42 44 45 48 46 46 44 42 44 48 50 45 39 39 44 46 46 45 39 32 28 32 34 36 36 37 40 39 39 39 42 42 38 37 45 43 38 36 37 39 38 41 41 41 40 36 30 29 32 37 39 44 44 43 47 50 51 53 57 54 49 42 37 30 32 31 6 3 1 1 1 0 0 0 0 0 0 0 0 0 0 0 0 0 0 0 0 0 0 0 0 0 0 0 0 0 0 0 0 0 0 0 0 0 0 0 0 0 
0 0 0 0 0 0 0 0 0 0 0 0 0 1 0 1 4 4 16 41 45 42 46 50 49 47 45 45 47 49 49 43 38 39 39 41 40 39 36 32 30 32 34 36 39 41 41 42 44 45 46 46 48 49 48 45 44 46 43 42 42 44 45 43 42 37 31 30 34 41 39 39 42 41 45 49 51 54 58 56 46 39 33 31 35 20 4 4 2 2 1 0 0 0 0 0 0 0 0 0 0 0 0 0 0 0 0 0 0 0 0 0 0 0 0 0 0 0 0 0 0 0 0 0 0 0 0 0 
0 0 0 0 0 0 0 0 0 0 0 0 1 0 0 1 3 4 8 36 44 39 43 46 52 51 50 47 50 49 49 46 43 42 38 38 36 32 31 35 35 36 36 38 42 45 45 45 48 49 48 49 52 54 55 53 52 50 46 46 48 51 52 50 45 41 39 38 40 42 38 38 41 41 41 49 51 56 56 54 44 35 29 29 35 10 3 3 2 2 1 0 1 0 0 0 0 0 0 0 0 0 0 0 0 0 0 0 0 0 0 0 0 0 0 0 0 0 0 0 0 0 0 0 0 0 0 0 
0 0 0 0 0 0 0 0 0 0 0 0 1 0 0 1 3 4 4 24 41 41 39 42 50 54 53 51 50 49 49 48 45 43 41 39 37 35 35 37 44 44 43 43 45 48 49 48 49 47 47 48 47 48 50 51 50 48 45 46 48 52 54 53 49 47 46 45 47 39 35 36 39 40 39 46 51 58 53 49 44 39 31 34 28 6 2 3 1 1 1 0 1 0 0 0 0 0 0 0 0 0 0 0 0 0 0 0 0 0 0 0 0 0 0 0 0 0 0 0 0 0 0 0 0 0 0 0 
0 0 0 0 0 0 0 0 0 0 0 1 1 0 0 1 3 3 3 13 33 39 39 40 47 51 53 53 50 48 47 48 46 43 40 40 40 40 42 44 46 50 50 48 49 49 49 51 50 49 47 48 47 48 48 49 48 48 46 47 48 51 55 54 54 53 50 51 48 38 34 33 36 39 41 47 52 57 52 44 39 35 36 34 23 5 2 2 1 1 0 0 0 0 0 0 0 0 0 0 0 0 0 0 0 0 0 0 0 0 0 0 0 0 0 0 0 0 0 0 0 0 0 0 0 0 0 0 
0 0 0 0 0 0 0 0 0 0 0 1 4 3 0 1 2 2 3 9 28 40 42 39 41 46 52 53 50 46 46 46 45 41 37 37 37 38 40 43 46 50 53 53 52 52 52 52 50 50 49 51 52 52 50 48 49 50 45 46 47 49 52 54 54 53 50 51 49 36 30 32 37 42 48 51 53 55 50 43 33 29 33 35 20 5 2 1 1 1 0 0 0 0 0 0 0 0 0 0 0 0 0 0 0 0 0 0 0 0 0 0 0 0 0 0 0 0 0 0 0 0 0 0 0 0 0 0 
0 0 0 0 0 0 0 0 0 0 0 1 3 4 3 2 2 3 4 7 23 35 40 39 38 40 50 51 53 46 43 43 44 36 33 35 36 38 39 40 42 47 52 53 52 53 55 53 52 52 52 54 54 54 52 45 46 48 43 42 44 49 48 54 56 56 54 53 49 36 31 33 37 41 53 57 58 57 51 36 29 29 34 33 13 5 1 1 1 1 0 1 1 0 0 0 0 0 0 0 0 0 0 0 0 0 0 0 0 0 0 0 0 0 0 0 0 0 0 0 0 0 0 0 0 0 0 0 
0 0 0 0 0 0 0 0 0 0 0 0 3 3 3 2 2 4 5 5 11 30 40 40 35 38 46 51 54 49 45 43 44 37 32 34 36 37 36 37 39 45 52 52 52 51 52 51 51 51 53 56 54 54 48 39 40 44 43 41 44 49 50 54 59 58 56 54 49 39 32 33 36 44 54 55 57 53 47 31 27 27 28 23 6 4 2 1 1 1 1 1 2 1 1 0 0 0 0 0 0 0 0 0 0 0 0 0 0 0 0 0 0 0 0 0 0 0 0 0 0 0 0 0 0 0 0 0 
0 0 0 0 0 0 0 0 0 0 0 0 3 3 3 3 3 3 4 5 5 17 38 37 37 37 41 49 54 55 51 46 42 40 34 31 31 32 33 35 41 47 51 51 51 49 49 49 49 47 50 51 47 53 51 43 42 44 43 40 46 52 50 56 58 58 56 57 58 42 39 39 45 49 49 49 42 35 35 24 20 28 32 12 3 2 3 2 1 1 1 1 4 2 0 0 0 0 0 0 0 0 0 0 0 0 0 0 0 0 0 0 0 0 0 0 0 0 0 0 0 0 0 0 0 0 0 0 
0 0 0 0 0 0 0 0 0 0 0 0 3 3 2 1 2 1 3 5 6 9 24 33 31 30 38 47 51 55 55 49 44 43 39 34 34 36 38 45 44 55 60 57 56 53 53 55 55 54 55 52 52 58 59 53 50 51 50 49 52 53 58 59 56 56 55 58 55 54 44 47 48 46 38 31 29 28 30 25 32 33 17 5 3 0 0 1 1 1 1 1 2 1 0 0 0 0 0 0 0 0 0 0 0 0 0 0 0 0 0 0 0 0 0 0 0 0 0 0 0 0 0 0 0 0 0 0 
0 0 0 0 0 0 0 0 0 0 0 0 0 2 1 0 0 0 1 3 5 7 11 27 27 24 31 34 33 47 49 49 47 46 43 37 39 40 43 45 53 59 59 58 60 62 59 63 61 58 58 59 58 57 56 54 53 54 55 56 58 59 64 64 64 66 59 63 47 47 51 48 35 27 25 28 28 27 28 24 23 15 9 7 4 0 0 0 0 0 1 2 2 0 0 0 0 0 0 0 0 0 0 0 0 0 0 0 0 0 0 0 0 0 0 0 0 0 0 0 0 0 0 0 0 0 0 0 
0 0 0 0 0 0 0 0 0 0 0 0 0 0 0 0 0 0 0 2 4 7 8 15 27 29 22 18 21 25 31 36 45 45 43 41 38 43 49 57 58 56 59 58 60 62 59 57 57 55 52 54 53 51 50 49 50 48 49 52 52 58 62 57 53 61 55 54 52 49 43 36 30 26 26 31 32 31 23 15 13 13 11 8 6 0 0 0 0 0 0 2 2 0 0 0 0 0 0 0 0 0 0 0 0 0 0 0 0 0 0 0 0 0 0 0 0 0 0 0 0 0 0 0 0 0 0 0 
0 0 0 0 0 0 0 0 0 0 0 0 0 0 1 1 1 0 0 1 3 4 6 7 12 17 12 14 22 21 22 21 28 29 27 29 27 24 25 25 30 41 48 51 45 46 45 39 42 34 31 35 38 37 36 35 29 27 33 33 31 36 32 45 44 52 43 27 21 21 19 21 20 18 18 26 28 29 16 9 9 8 6 2 1 0 0 1 0 0 0 2 1 0 0 0 0 0 0 0 0 0 0 0 0 0 0 0 0 0 0 0 0 0 0 0 0 0 0 0 0 0 0 0 0 0 0 0 
0 0 0 0 0 0 0 0 0 0 0 0 0 0 0 0 0 0 0 0 1 3 4 5 7 7 7 11 23 22 21 20 22 22 21 21 23 20 23 24 27 28 25 25 30 32 27 23 25 26 20 24 30 31 31 31 24 20 25 25 28 34 29 26 25 31 30 30 35 35 21 22 21 18 18 26 29 28 16 9 9 8 5 2 0 0 0 0 0 0 0 1 0 0 0 0 0 0 0 0 0 0 0 0 0 0 0 0 0 0 0 0 0 0 0 0 0 0 0 0 0 0 0 0 0 0 0 0 
0 0 0 0 0 0 0 0 0 0 0 0 0 0 0 0 0 0 0 0 1 2 3 5 7 8 9 12 24 25 22 21 23 24 22 21 24 31 39 43 46 48 35 33 34 35 32 32 35 30 25 29 31 32 31 31 29 24 30 35 35 38 33 31 41 51 36 24 29 26 29 30 26 23 24 29 30 29 16 11 9 8 4 3 0 0 0 0 0 0 0 0 0 0 0 0 0 0 0 0 0 0 0 0 0 0 0 0 0 0 0 0 0 0 0 0 0 0 0 0 0 0 0 0 0 0 0 0 
0 0 0 0 0 0 0 0 0 0 0 0 0 0 0 0 0 0 0 0 0 1 1 2 5 10 11 14 25 28 25 22 25 28 28 28 32 37 39 48 53 58 51 44 47 53 52 52 47 40 38 41 41 40 39 39 38 35 37 43 45 48 45 50 53 58 39 42 35 44 37 38 34 30 30 29 29 27 18 13 8 6 3 2 0 0 0 0 0 0 0 0 0 0 0 0 0 0 0 0 0 0 0 0 0 0 0 0 0 0 0 0 0 0 0 0 0 0 0 0 0 0 0 0 0 0 0 0 
0 0 0 0 0 0 0 0 0 0 0 0 0 0 0 0 0 0 0 0 0 0 1 1 2 8 10 12 20 24 22 21 25 27 30 28 30 35 43 39 54 58 55 50 56 59 57 56 51 54 54 51 51 52 51 49 49 47 46 47 46 52 53 51 54 54 52 39 47 51 44 44 34 24 19 21 25 18 10 6 3 2 2 0 0 0 0 0 0 0 0 0 0 0 0 0 0 0 0 0 0 0 0 0 0 0 0 0 0 0 0 0 0 0 0 0 0 0 0 0 0 0 0 0 0 0 0 0 
0 0 0 0 0 0 0 0 0 0 0 0 0 0 0 0 0 0 0 0 0 0 0 1 2 5 9 12 17 25 25 23 25 25 26 23 22 28 33 33 45 43 40 34 40 43 50 55 52 49 46 44 46 44 45 41 43 42 41 40 43 47 40 43 44 39 45 48 51 50 38 22 16 15 19 27 26 14 7 6 3 2 1 0 0 0 0 0 0 0 0 0 0 0 0 0 1 0 0 0 0 0 0 0 0 0 0 0 0 0 0 0 0 0 0 0 0 0 0 0 0 0 0 0 0 0 0 0 
0 0 0 0 0 0 0 0 0 0 0 0 0 0 0 0 0 0 0 0 0 0 1 2 3 5 6 7 11 18 23 22 22 22 19 18 19 22 32 40 40 40 37 31 33 38 45 45 41 38 37 32 36 33 34 30 33 34 34 34 38 43 40 33 38 43 46 39 44 41 33 21 17 19 23 34 30 15 7 5 5 4 2 0 0 0 0 0 0 0 0 0 0 0 0 0 0 0 0 0 0 0 0 0 0 0 0 0 0 0 0 0 0 0 0 0 0 0 0 0 0 0 0 0 0 0 0 0 
0 0 0 0 0 0 0 0 0 0 0 0 0 0 0 0 0 0 0 0 0 0 0 2 3 4 6 6 8 15 21 26 25 23 19 17 19 23 29 36 35 34 34 34 36 42 43 42 39 38 36 29 32 32 33 31 36 38 39 37 36 40 35 29 26 36 43 45 44 37 32 22 17 20 27 37 30 16 8 6 6 4 2 0 0 0 0 0 0 0 0 0 0 0 0 0 0 0 0 0 0 0 0 0 0 0 0 0 0 0 0 0 0 0 0 0 0 0 0 0 0 0 0 0 0 0 0 0 
0 0 0 0 0 0 0 0 0 0 0 0 0 0 0 0 0 0 0 0 0 0 0 1 2 3 5 7 7 13 19 26 26 24 21 18 16 18 24 33 31 28 29 30 33 37 40 42 42 40 38 32 34 34 34 32 36 35 39 41 39 42 41 36 34 32 38 40 37 32 26 20 18 23 31 38 30 17 8 6 5 3 1 0 0 0 0 0 0 0 0 0 0 0 0 0 0 0 0 0 0 0 0 0 0 0 0 0 0 0 0 0 0 0 0 0 0 0 0 0 0 0 0 0 0 0 0 0 
0 0 0 0 0 0 0 0 0 0 0 0 0 0 0 0 0 0 0 0 0 0 0 0 2 3 4 6 7 11 16 24 26 25 22 19 16 17 20 22 23 26 29 30 33 36 38 40 45 43 39 34 34 34 31 31 33 32 36 40 41 48 44 37 33 30 34 37 38 33 27 21 18 23 34 39 28 17 8 6 5 3 1 0 0 0 0 0 0 0 0 0 0 0 0 0 0 0 0 0 0 0 0 0 0 0 0 0 0 0 0 0 0 0 0 0 0 0 0 0 0 0 0 0 0 0 0 0 
0 0 0 0 0 0 0 0 0 0 0 0 0 0 0 0 0 0 0 0 0 0 0 0 1 2 3 5 6 9 15 21 28 27 23 21 18 17 17 19 21 24 29 30 33 34 35 37 42 38 37 35 33 32 29 29 31 32 36 37 39 41 40 35 33 34 33 32 32 33 28 24 20 23 34 38 28 17 9 5 4 3 0 0 0 0 0 0 0 0 0 0 0 0 0 0 0 0 0 0 0 0 0 0 0 0 0 0 0 0 0 0 0 0 0 0 0 0 0 0 0 0 0 0 0 0 0 0 
0 0 0 0 0 0 0 0 0 0 0 0 0 0 0 0 0 0 0 0 0 0 0 0 0 1 3 4 6 8 14 19 27 27 25 24 20 19 17 19 21 23 28 31 35 34 32 32 34 35 38 35 32 32 30 29 30 33 36 35 38 36 37 34 34 35 34 30 26 25 23 23 23 26 34 37 27 15 6 5 5 2 0 0 0 0 0 0 0 0 0 0 0 0 0 0 0 0 0 0 0 0 0 0 0 0 0 0 0 0 0 0 0 0 0 0 0 0 0 0 0 0 0 0 0 0 0 0 
0 0 0 0 0 0 0 0 0 0 0 0 0 0 0 0 0 0 0 0 0 0 0 0 0 1 2 3 4 6 11 18 23 25 27 25 22 20 18 18 19 23 27 31 32 32 31 29 28 31 36 34 31 30 31 31 32 33 33 34 36 35 34 31 31 33 31 28 25 21 20 24 27 28 36 31 16 7 5 5 5 2 0 0 0 0 0 0 0 0 0 0 0 0 0 0 0 0 0 0 0 0 0 0 0 0 0 0 0 0 0 0 0 0 0 0 0 0 0 0 0 0 0 0 0 0 0 0 
0 0 0 0 0 0 0 0 0 0 0 0 0 0 0 0 0 0 0 0 0 0 0 0 0 1 1 2 4 5 6 10 14 15 26 27 24 21 19 16 18 22 25 27 29 30 30 29 28 30 36 35 32 31 32 32 32 33 33 32 33 32 32 30 30 30 28 25 24 21 20 24 28 32 36 15 5 5 5 5 5 2 0 0 0 0 0 0 0 0 0 0 0 0 0 0 0 0 0 0 0 0 0 0 0 0 0 0 0 0 0 0 0 0 0 0 0 0 0 0 0 0 0 0 0 0 0 0 
0 0 0 0 0 0 0 0 0 0 0 0 0 0 0 0 0 0 0 0 0 0 0 0 0 0 1 1 3 5 6 6 6 5 10 27 26 24 23 20 19 20 23 24 26 26 28 29 30 32 31 33 32 30 28 30 34 34 32 29 31 32 34 30 28 27 23 24 23 22 24 28 29 33 25 8 5 5 5 5 4 2 0 0 0 0 0 0 0 0 0 0 0 0 0 0 0 0 0 0 0 0 0 0 0 0 0 0 0 0 0 0 0 0 0 0 0 0 0 0 0 0 0 0 0 0 0 0 
0 0 0 0 0 0 0 0 0 0 0 0 0 0 0 0 0 0 0 0 0 0 0 0 0 0 0 1 2 4 5 6 5 5 3 13 27 28 26 23 21 21 23 25 25 24 26 28 33 33 29 30 32 31 30 31 34 35 31 28 30 32 35 32 29 26 26 27 25 25 28 32 32 27 11 6 4 5 5 5 4 1 0 0 0 0 0 0 0 0 0 0 0 0 0 0 0 0 0 0 0 0 0 0 0 0 0 0 0 0 0 0 0 0 0 0 0 0 0 0 0 0 0 0 0 0 0 0 
0 0 0 0 0 0 0 0 0 0 0 0 0 0 0 0 0 0 0 0 0 0 0 0 0 0 0 1 2 3 5 6 5 5 4 4 12 25 29 27 24 24 25 27 28 27 28 29 31 32 30 32 32 32 31 35 37 37 36 32 32 36 36 32 30 28 28 31 29 29 32 34 26 12 8 5 4 4 5 4 3 1 0 0 0 0 0 0 0 0 0 0 0 0 0 0 0 0 0 0 0 0 0 0 0 0 0 0 0 0 0 0 0 0 0 0 0 0 0 0 0 0 0 0 0 0 0 0 
0 0 0 0 0 0 0 0 0 0 0 0 0 0 0 0 0 0 0 0 0 0 0 0 0 0 0 0 1 2 3 5 5 5 4 4 5 10 21 27 27 30 30 30 31 32 30 30 30 33 32 31 32 32 32 36 37 36 36 34 30 33 36 34 32 31 33 35 35 32 32 24 11 8 7 5 4 5 5 4 3 1 0 0 0 0 0 0 0 0 0 0 0 0 0 0 0 0 0 0 0 0 0 0 0 0 0 0 0 0 0 0 0 0 0 0 0 0 0 0 0 0 0 0 0 0 0 0 
0 0 0 0 0 0 0 0 0 0 0 0 0 0 0 0 0 0 0 0 0 0 0 0 0 0 0 0 1 2 2 5 5 5 4 3 5 7 9 17 26 31 33 34 34 36 34 33 33 34 31 30 32 34 36 37 38 36 38 38 34 32 38 37 36 36 36 37 36 30 21 11 9 8 7 5 4 4 4 4 3 1 0 0 0 0 0 0 0 0 0 0 0 0 0 0 0 0 0 0 0 0 0 0 0 0 0 0 0 0 0 0 0 0 0 0 0 0 0 0 0 0 0 0 0 0 0 0 
0 0 0 0 0 0 0 0 0 0 0 0 0 0 0 0 0 0 0 0 0 0 0 0 0 0 0 0 0 2 2 4 5 5 4 3 4 6 8 9 12 20 28 33 36 38 37 36 36 35 34 34 35 35 34 35 35 36 37 39 38 34 38 40 39 38 37 35 27 16 10 9 9 8 6 5 4 4 4 4 3 1 0 0 0 0 0 0 0 0 0 0 0 0 0 0 0 0 0 0 0 0 0 0 0 0 0 0 0 0 0 0 0 0 0 0 0 0 0 0 0 0 0 0 0 0 0 0 
0 0 0 0 0 0 0 0 0 0 0 0 0 0 0 0 0 0 0 0 0 0 0 0 0 0 0 0 0 2 1 3 4 5 4 3 3 6 8 9 10 11 13 20 30 33 34 35 34 35 38 37 36 35 34 34 34 36 38 36 38 39 39 40 38 35 30 20 14 12 9 9 8 7 6 5 4 4 4 3 2 1 0 0 0 0 0 0 0 0 0 0 0 0 0 0 0 0 0 0 0 0 0 0 0 0 0 0 0 0 0 0 0 0 0 0 0 0 0 0 0 0 0 0 0 0 0 0 
0 0 0 0 0 0 0 0 0 0 0 0 0 0 0 0 0 0 0 0 0 0 0 0 0 0 0 0 0 1 2 2 4 5 5 4 3 6 8 9 10 10 10 12 16 23 27 29 31 32 35 36 35 35 35 35 35 36 39 38 39 36 36 33 29 23 18 16 13 12 9 9 8 7 5 4 4 4 4 4 3 1 0 0 0 0 0 0 0 0 0 0 0 0 0 0 0 0 0 0 0 0 0 0 0 0 0 0 0 0 0 0 0 0 0 0 0 0 0 0 0 0 0 0 0 0 0 0 
