P2
128 99
255
0 0 0 0 0 0 0 0 0 0 0 0 0 0 0 0 0 0 0 0 0 0 0 0 0 0 0 0 0 0 0 0 0 0 0 0 0 0 0 0 0 0 0 0 0 0 0 0 0 0 0 0 0 0 0 0 0 0 0 0 0 0 0 0 0 0 0 0 0 0 0 0 0 0 0 0 0 0 0 0 0 0 0 0 0 0 0 0 0 0 0 0 0 0 0 0 0 0 0 0 0 0 0 0 0 0 0 0 0 0 0 0 0 0 0 0 0 0 0 0 0 0 0 0 0 0 0 0 
0 0 0 0 0 0 0 0 0 0 0 0 0 0 0 0 0 0 0 0 0 0 0 0 0 0 0 0 0 0 0 0 0 0 0 0 0 0 0 0 0 0 0 0 0 0 0 0 0 0 0 0 0 0 0 0 0 0 0 0 0 0 0 0 0 0 0 0 0 0 0 0 0 0 0 0 0 0 0 0 0 0 0 0 0 0 0 0 0 0 0 0 0 0 0 0 0 0 0 0 0 0 0 0 0 0 0 0 0 0 0 0 0 0 0 0 0 0 0 0 0 0 0 0 0 0 0 0 
0 0 0 0 0 0 0 0 0 0 0 0 0 0 0 0 0 0 0 0 0 0 0 0 0 0 0 0 0 0 0 0 0 0 0 0 0 0 0 0 0 0 0 0 0 0 0 0 0 0 0 0 0 0 0 0 0 0 0 0 0 0 0 0 0 0 0 0 0 0 0 0 0 0 0 0 0 0 0 0 0 0 0 0 0 0 0 0 0 0 0 0 0 0 0 0 0 0 0 0 0 0 0 0 0 0 0 0 0 0 0 0 0 0 0 0 0 0 0 0 0 0 0 0 0 0 0 0 
0 0 0 0 0 0 0 0 0 0 0 0 0 0 0 0 0 0 0 0 0 0 0 0 0 0 0 0 0 0 0 0 0 0 0 0 0 0 0 0 0 0 0 0 0 0 4 7 5 4 2 2 2 5 5 3 2 1 1 2 0 0 0 0 0 0 0 0 0 0 0 0 0 0 0 0 0 0 0 0 0 0 0 0 0 0 0 0 0 0 0 0 0 0 0 0 0 0 0 0 0 0 0 0 0 0 0 0 0 0 0 0 0 0 0 0 0 0 0 0 0 0 0 0 0 0 0 0 
0 0 0 0 0 0 0 0 0 0 0 0 0 0 0 0 0 0 0 0 0 0 0 0 0 0 0 0 0 0 0 0 0 0 0 0 0 0 0 0 0 0 4 7 6 5 11 20 27 31 33 33 35 36 34 31 27 21 14 12 7 2 2 2 0 0 0 0 0 0 0 0 0 0 0 0 0 0 0 0 0 0 0 0 0 0 0 0 0 0 0 0 0 0 0 0 0 0 0 0 0 0 0 0 0 0 0 0 0 0 0 0 0 0 0 0 0 0 0 0 0 0 0 0 0 0 0 0 
0 0 0 0 0 0 0 0 0 0 0 0 0 0 0 0 0 0 0 0 0 0 0 0 0 0 0 0 0 0 0 0 0 0 0 0 0 0 0 1 7 5 5 16 29 39 44 45 48 53 50 49 49 50 50 50 50 49 48 42 36 31 16 12 3 2 2 0 0 0 0 0 0 0 0 0 0 0 0 0 0 0 0 0 0 0 0 0 0 0 0 0 0 0 0 0 0 0 0 0 0 0 0 0 0 0 0 0 0 0 0 0 0 0 0 0 0 0 0 0 0 0 0 0 0 0 0 0 
0 0 0 0 0 0 0 0 0 0 0 0 0 0 0 0 0 0 0 0 0 0 0 0 0 0 0 0 0 0 0 0 0 0 0 0 0 4 7 5 10 26 41 48 46 50 51 51 51 51 52 52 53 53 52 53 52 50 51 51 50 48 44 37 32 16 11 2 2 0 0 0 0 0 0 0 0 0 0 0 0 0 0 0 0 0 0 0 0 0 0 0 0 0 0 0 0 0 0 0 0 0 0 0 0 0 0 0 0 0 0 0 0 0 0 0 0 0 0 0 0 0 0 0 0 0 0 0 
0 0 0 0 0 0 0 0 0 0 0 0 0 0 0 0 0 0 0 0 0 0 0 0 0 0 0 0 0 0 0 0 0 0 0 4 7 3 10 34 46 47 51 47 47 54 54 51 44 42 47 45 47 44 47 49 52 49 49 52 52 51 51 51 49 45 37 26 12 5 2 0 0 0 0 0 0 0 0 0 0 0 0 0 0 0 0 0 0 0 0 0 0 0 0 0 0 0 0 0 0 0 0 0 0 0 0 0 0 0 0 0 0 0 0 0 0 0 0 0 0 0 0 0 0 0 0 0 
0 0 0 0 0 0 0 0 0 0 0 0 0 0 0 0 0 0 0 0 0 0 0 0 0 0 0 0 0 0 0 0 0 4 6 3 10 35 47 47 51 38 44 51 49 44 44 41 40 26 46 46 44 42 42 44 27 47 52 52 50 51 35 52 51 51 49 49 39 25 11 6 2 0 0 0 0 0 0 0 0 0 0 0 0 0 0 0 0 0 0 0 0 0 0 0 0 0 0 0 0 0 0 0 0 0 0 0 0 0 0 0 0 0 0 0 0 0 0 0 0 0 0 0 0 0 0 0 
0 0 0 0 0 0 0 0 0 0 0 0 0 0 0 0 0 0 0 0 0 0 0 0 0 0 0 0 0 0 0 0 6 4 2 28 45 47 49 44 50 51 53 42 42 42 54 39 35 34 36 39 39 39 40 41 41 41 44 41 55 53 53 54 45 42 52 51 49 50 36 20 8 4 0 0 0 0 0 0 0 0 0 0 0 0 0 0 0 0 0 0 0 0 0 0 0 0 0 0 0 0 0 0 0 0 0 0 0 0 0 0 0 0 0 0 0 0 0 0 0 0 0 0 0 0 0 0 
0 0 0 0 0 0 0 0 0 0 0 0 0 0 0 0 0 0 0 0 0 0 0 0 0 0 0 0 0 0 3 5 2 15 43 47 47 42 49 51 49 47 47 44 41 43 37 36 35 33 35 38 38 38 38 38 37 38 39 44 47 43 58 58 54 51 49 48 52 51 50 45 28 10 7 0 0 0 0 0 0 0 0 0 0 0 0 0 0 0 0 0 0 0 0 0 0 0 0 0 0 0 0 0 0 0 0 0 0 0 0 0 0 0 0 0 0 0 0 0 0 0 0 0 0 0 0 0 
0 0 0 0 0 0 0 0 0 0 0 0 0 0 0 0 0 0 0 0 0 0 0 0 0 0 0 0 0 6 3 1 37 48 48 48 48 52 51 53 49 46 46 40 41 42 40 39 38 38 38 28 26 33 37 37 37 36 38 38 40 44 43 52 56 59 55 52 53 48 54 51 51 39 13 6 2 0 0 0 0 0 0 0 0 0 0 0 0 0 0 0 0 0 0 0 0 0 0 0 0 0 0 0 0 0 0 0 0 0 0 0 0 0 0 0 0 0 0 0 0 0 0 0 0 0 0 0 
0 0 0 0 0 0 0 0 0 0 0 0 0 0 0 0 0 0 0 0 0 0 0 0 0 0 0 0 3 6 9 43 48 50 49 54 43 55 52 47 43 42 40 11 9 12 27 36 36 38 26 27 26 18 38 14 9 9 11 17 38 39 43 44 39 47 63 57 57 53 51 53 51 49 40 16 6 0 0 0 0 0 0 0 0 0 0 0 0 0 0 0 0 0 0 0 0 0 0 0 0 0 0 0 0 0 0 0 0 0 0 0 0 0 0 0 0 0 0 0 0 0 0 0 0 0 0 0 
0 0 0 0 0 0 0 0 0 0 0 0 0 0 0 0 0 0 0 0 0 0 0 0 0 0 0 3 13 20 46 47 51 54 56 57 53 49 43 43 43 27 8 7 6 6 7 8 14 21 25 23 23 14 12 10 8 7 7 7 14 43 43 42 42 45 36 44 63 58 56 51 45 48 48 45 20 6 0 0 0 0 0 0 0 0 0 0 0 0 0 0 0 0 0 0 0 0 0 0 0 0 0 0 0 0 0 0 0 0 0 0 0 0 0 0 0 0 0 0 0 0 0 0 0 0 0 0 
0 0 0 0 0 0 0 0 0 0 0 0 0 0 0 0 0 0 0 0 0 0 0 0 0 0 3 11 19 47 47 51 57 51 54 51 46 41 43 43 25 6 5 6 6 6 8 12 13 13 13 13 13 12 12 12 10 7 6 6 7 12 43 41 47 42 42 44 35 42 60 57 52 42 48 49 47 23 6 0 0 0 0 0 0 0 0 0 0 0 0 0 0 0 0 0 0 0 0 0 0 0 0 0 0 0 0 0 0 0 0 0 0 0 0 0 0 0 0 0 0 0 0 0 0 0 0 0 
0 0 0 0 0 0 0 0 0 0 0 0 0 0 0 0 0 0 0 0 0 0 0 0 0 3 10 22 46 47 53 54 55 53 47 38 42 42 41 10 6 5 6 6 7 8 11 11 13 13 13 13 12 11 11 11 11 11 9 8 8 8 10 43 47 41 49 41 45 43 49 33 60 53 42 51 50 47 29 7 0 0 0 0 0 0 0 0 0 0 0 0 0 0 0 0 0 0 0 0 0 0 0 0 0 0 0 0 0 0 0 0 0 0 0 0 0 0 0 0 0 0 0 0 0 0 0 0 
0 0 0 0 0 0 0 0 0 0 0 0 0 0 0 0 0 0 0 0 0 0 0 0 2 10 40 46 46 53 55 46 49 40 39 40 42 31 8 5 5 6 6 7 8 11 10 11 11 11 12 12 11 11 11 11 11 11 11 10 10 10 9 21 34 43 42 46 45 42 41 46 39 46 53 42 50 50 48 34 8 0 0 0 0 0 0 0 0 0 0 0 0 0 0 0 0 0 0 0 0 0 0 0 0 0 0 0 0 0 0 0 0 0 0 0 0 0 0 0 0 0 0 0 0 0 0 0 
0 0 0 0 0 0 0 0 0 0 0 0 0 0 0 0 0 0 0 0 0 0 0 3 11 39 47 49 55 56 46 42 34 39 41 44 46 9 7 6 7 7 7 8 10 11 10 10 11 11 11 12 10 11 12 11 10 11 11 10 10 10 10 10 12 20 41 41 39 42 37 41 30 50 46 53 51 49 50 49 36 7 0 0 0 0 0 0 0 0 0 0 0 0 0 0 0 0 0 0 0 0 0 0 0 0 0 0 0 0 0 0 0 0 0 0 0 0 0 0 0 0 0 0 0 0 0 0 
0 0 0 0 0 0 0 0 0 0 0 0 0 0 0 0 0 0 0 0 0 0 4 11 24 46 47 53 58 45 41 37 40 41 42 46 9 7 8 8 9 10 10 10 11 11 11 12 12 11 10 11 11 11 11 11 10 10 11 11 11 10 10 10 10 10 13 30 41 44 42 35 39 42 46 56 42 47 50 48 44 34 0 0 0 0 0 0 0 0 0 0 0 0 0 0 0 0 0 0 0 0 0 0 0 0 0 0 0 0 0 0 0 0 0 0 0 0 0 0 0 0 0 0 0 0 0 0 
0 0 0 0 0 0 0 0 0 0 0 0 0 0 0 0 0 0 0 0 0 3 10 24 45 48 53 54 42 36 36 39 41 41 47 10 10 11 10 11 10 10 10 11 10 11 11 11 11 11 12 14 15 16 15 14 12 11 11 11 11 11 11 10 10 11 10 11 27 41 40 36 35 39 40 43 52 41 46 50 49 45 30 0 0 0 0 0 0 0 0 0 0 0 0 0 0 0 0 0 0 0 0 0 0 0 0 0 0 0 0 0 0 0 0 0 0 0 0 0 0 0 0 0 0 0 0 0 
0 0 0 0 0 0 0 0 0 0 0 0 0 0 0 0 0 0 0 0 0 10 24 45 47 54 54 30 41 35 40 41 40 46 11 10 10 11 10 11 10 10 10 11 10 11 13 15 14 16 16 18 22 18 19 24 23 20 17 14 11 10 11 11 11 11 11 10 11 17 41 39 38 34 38 39 44 41 58 53 49 45 42 1 0 0 0 0 0 0 0 0 0 0 0 0 0 0 0 0 0 0 0 0 0 0 0 0 0 0 0 0 0 0 0 0 0 0 0 0 0 0 0 0 0 0 0 0 
0 0 0 0 0 0 0 0 0 0 0 0 0 0 0 0 0 0 0 0 17 39 44 47 49 53 35 42 34 41 41 39 40 12 10 10 11 10 11 10 11 10 10 10 13 18 13 14 15 15 14 14 17 17 14 15 15 15 14 15 18 14 10 11 11 11 11 11 11 11 14 38 36 33 35 38 39 42 52 57 50 49 46 40 0 0 0 0 0 0 0 0 0 0 0 0 0 0 0 0 0 0 0 0 0 0 0 0 0 0 0 0 0 0 0 0 0 0 0 0 0 0 0 0 0 0 0 0 
0 0 0 0 0 0 0 0 0 0 0 0 0 0 0 0 0 0 0 4 39 24 47 50 51 29 42 36 40 39 38 43 16 11 11 10 11 11 11 11 10 11 11 19 15 18 21 25 23 21 23 23 23 26 25 24 25 24 21 20 17 15 15 11 12 11 11 11 11 10 10 14 31 35 38 36 38 39 43 45 55 50 47 45 20 0 0 0 0 0 0 0 0 0 0 0 0 0 0 0 0 0 0 0 0 0 0 0 0 0 0 0 0 0 0 0 0 0 0 0 0 0 0 0 0 0 0 0 
0 0 0 0 0 0 0 0 0 0 0 0 0 0 0 0 0 0 1 21 41 42 48 52 39 44 35 37 38 38 42 18 11 10 10 10 11 11 11 10 11 13 20 18 21 24 23 24 24 22 25 24 25 25 23 23 25 24 23 22 21 20 15 16 12 11 11 11 11 10 11 11 13 30 43 36 39 37 39 42 53 54 48 47 23 0 0 0 0 0 0 0 0 0 0 0 0 0 0 0 0 0 0 0 0 0 0 0 0 0 0 0 0 0 0 0 0 0 0 0 0 0 0 0 0 0 0 0 
0 0 0 0 0 0 0 0 0 0 0 0 0 0 0 0 0 0 3 23 41 45 51 48 34 39 34 38 38 39 24 9 10 10 10 10 11 12 12 11 14 18 20 23 23 23 22 23 24 24 25 25 24 25 25 25 25 24 24 24 23 23 20 16 16 11 11 11 11 11 10 10 11 13 37 37 39 36 38 37 35 54 51 44 44 0 0 0 0 0 0 0 0 0 0 0 0 0 0 0 0 0 0 0 0 0 0 0 0 0 0 0 0 0 0 0 0 0 0 0 0 0 0 0 0 0 0 0 
0 0 0 0 0 0 0 0 0 0 0 0 0 0 0 0 0 0 3 24 44 46 48 46 39 32 35 38 40 27 11 10 9 10 10 11 10 11 11 14 19 21 23 23 22 23 24 25 25 23 23 26 29 30 29 29 27 28 29 26 24 24 22 21 17 14 11 11 11 12 11 10 11 11 14 38 38 38 36 36 45 50 52 47 45 20 0 0 0 0 0 0 0 0 0 0 0 0 0 0 0 0 0 0 0 0 0 0 0 0 0 0 0 0 0 0 0 0 0 0 0 0 0 0 0 0 0 0 
0 0 0 0 0 0 0 0 0 0 0 0 0 0 0 0 0 1 22 26 48 45 45 47 31 33 37 38 26 9 9 10 11 11 10 11 10 12 16 18 21 25 27 27 28 29 28 29 28 29 31 31 31 30 26 27 28 29 29 27 27 28 25 23 21 18 16 10 11 11 11 10 10 10 10 15 41 37 37 33 45 37 49 45 44 43 0 0 0 0 0 0 0 0 0 0 0 0 0 0 0 0 0 0 0 0 0 0 0 0 0 0 0 0 0 0 0 0 0 0 0 0 0 0 0 0 0 0 
0 0 0 0 0 0 0 0 0 0 0 0 0 0 0 0 0 2 6 38 47 41 45 29 32 35 37 15 9 10 10 9 11 11 11 11 11 15 21 26 27 27 27 26 26 27 29 29 30 28 30 31 30 27 23 23 25 27 28 28 26 27 27 28 26 21 17 16 11 11 11 11 11 9 9 10 11 27 33 33 34 39 46 46 45 44 0 0 0 0 0 0 0 0 0 0 0 0 0 0 0 0 0 0 0 0 0 0 0 0 0 0 0 0 0 0 0 0 0 0 0 0 0 0 0 0 0 0 
0 0 0 0 0 0 0 0 0 0 0 0 0 0 0 0 0 3 31 51 44 39 41 24 33 33 25 8 9 10 10 10 11 10 11 11 16 24 27 27 27 27 26 26 27 28 29 29 29 26 26 26 27 26 26 25 26 26 25 27 27 27 27 27 28 26 21 16 15 11 11 11 11 10 11 9 8 10 32 32 32 49 42 47 41 46 20 0 0 0 0 0 0 0 0 0 0 0 0 0 0 0 0 0 0 0 0 0 0 0 0 0 0 0 0 0 0 0 0 0 0 0 0 0 0 0 0 0 
0 0 0 0 0 0 0 0 0 0 0 0 0 0 0 0 1 5 30 45 39 38 29 27 34 26 10 8 10 10 11 11 11 11 10 17 24 26 27 28 26 26 25 26 26 27 25 26 26 24 23 24 27 25 23 24 24 25 21 22 23 25 27 27 28 28 27 20 17 16 13 10 11 11 11 11 8 7 21 30 32 47 41 47 43 46 22 0 0 0 0 0 0 0 0 0 0 0 0 0 0 0 0 0 0 0 0 0 0 0 0 0 0 0 0 0 0 0 0 0 0 0 0 0 0 0 0 0 
0 0 0 0 0 0 0 0 0 0 0 0 0 0 0 0 2 9 49 44 38 38 56 33 32 13 8 9 9 11 11 12 11 12 18 25 27 28 27 25 26 22 21 24 23 26 24 25 23 25 25 25 28 25 24 24 24 25 24 24 24 24 24 26 29 29 30 27 21 18 15 13 11 11 11 10 10 8 14 30 30 31 32 47 39 45 41 0 0 0 0 0 0 0 0 0 0 0 0 0 0 0 0 0 0 0 0 0 0 0 0 0 0 0 0 0 0 0 0 0 0 0 0 0 0 0 0 0 
0 0 0 0 0 0 0 0 0 0 0 0 0 0 0 0 2 28 51 39 33 32 25 33 23 9 9 10 10 10 10 10 12 17 24 30 28 27 26 24 10 11 11 9 23 24 24 26 27 23 23 22 26 23 21 21 23 21 23 26 26 26 25 26 26 29 31 31 27 22 17 19 11 10 11 11 10 8 11 29 30 31 37 45 41 45 43 0 0 0 0 0 0 0 0 0 0 0 0 0 0 0 0 0 0 0 0 0 0 0 0 0 0 0 0 0 0 0 0 0 0 0 0 0 0 0 0 0 
0 0 0 0 0 0 0 0 0 0 0 0 0 0 0 0 5 31 42 34 32 31 30 28 12 9 11 11 10 11 11 11 14 24 30 31 28 27 24 13 11 12 10 11 14 24 24 22 21 25 25 24 25 24 24 23 23 23 24 24 20 18 11 11 12 24 26 33 32 29 22 18 16 10 11 10 10 9 9 22 25 29 40 41 42 46 45 20 0 0 0 0 0 0 0 0 0 0 0 0 0 0 0 0 0 0 0 0 0 0 0 0 0 0 0 0 0 0 0 0 0 0 0 0 0 0 0 0 
0 0 0 0 0 0 0 0 0 0 0 0 0 0 0 0 7 45 49 33 30 27 49 15 10 10 10 10 10 10 12 12 25 31 31 31 29 29 16 10 11 11 11 11 11 22 23 25 26 24 25 25 26 24 23 23 22 23 23 16 11 11 10 11 11 11 10 25 33 31 25 22 18 13 11 10 11 10 9 22 25 27 37 40 48 45 44 20 0 0 0 0 0 0 0 0 0 0 0 0 0 0 0 0 0 0 0 0 0 0 0 0 0 0 0 0 0 0 0 0 0 0 0 0 0 0 0 0 
0 0 0 0 0 0 0 0 0 0 0 0 0 0 0 1 28 45 38 33 29 29 25 10 10 10 11 10 10 11 14 19 33 31 31 31 24 23 25 11 11 11 11 11 11 11 17 24 25 24 25 27 26 24 23 23 23 22 23 14 11 11 11 11 11 11 17 27 30 33 27 23 22 14 10 11 10 10 10 16 24 25 36 40 48 45 46 22 0 0 0 0 0 0 0 0 0 0 0 0 0 0 0 0 0 0 0 0 0 0 0 0 0 0 0 0 0 0 0 0 0 0 0 0 0 0 0 0 
0 0 0 0 0 0 0 0 0 0 0 0 0 0 0 1 34 44 39 32 30 31 27 9 10 11 11 11 11 16 18 29 32 32 31 30 26 23 27 29 30 23 11 11 10 11 11 15 24 23 25 26 27 23 22 25 22 22 23 10 11 12 11 11 11 22 29 33 29 32 33 26 24 20 21 11 10 10 10 14 29 51 31 40 47 44 45 23 0 0 0 0 0 0 0 0 0 0 0 0 0 0 0 0 0 0 0 0 0 0 0 0 0 0 0 0 0 0 0 0 0 0 0 0 0 0 0 0 
0 0 0 0 0 0 0 0 0 0 0 0 0 0 0 3 29 46 40 37 30 32 21 8 9 9 10 11 12 18 28 34 33 33 34 24 15 10 10 11 17 17 17 10 11 10 10 10 21 26 27 27 27 27 28 13 10 11 10 12 11 11 10 19 21 16 14 12 11 14 26 24 26 27 25 27 13 10 9 14 31 29 49 41 45 47 47 44 0 0 0 0 0 0 0 0 0 0 0 0 0 0 0 0 0 0 0 0 0 0 0 0 0 0 0 0 0 0 0 0 0 0 0 0 0 0 0 0 
0 0 0 0 0 0 0 0 0 0 0 0 0 0 0 21 26 46 39 37 32 34 21 8 10 9 10 10 16 22 37 33 36 36 27 11 10 10 11 12 11 16 12 16 18 19 10 10 9 10 10 28 26 27 20 10 10 10 11 11 10 15 16 10 17 18 17 18 17 15 11 13 19 24 29 29 22 10 9 14 32 29 24 40 44 46 48 44 1 0 0 0 0 0 0 0 0 0 0 0 0 0 0 0 0 0 0 0 0 0 0 0 0 0 0 0 0 0 0 0 0 0 0 0 0 0 0 0 
0 0 0 0 0 0 0 0 0 0 0 0 0 0 0 24 32 45 41 36 32 33 20 9 8 8 10 10 18 27 38 37 38 27 11 11 12 17 17 18 17 19 14 13 12 20 13 10 9 10 10 16 24 28 14 10 9 10 11 10 15 16 11 16 20 21 20 18 19 18 17 12 10 18 27 34 30 22 8 13 33 22 29 40 40 49 48 45 19 0 0 0 0 0 0 0 0 0 0 0 0 0 0 0 0 0 0 0 0 0 0 0 0 0 0 0 0 0 0 0 0 0 0 0 0 0 0 0 
0 0 0 0 0 0 0 0 0 0 0 0 0 0 0 24 34 48 40 35 30 33 17 9 7 9 8 12 18 32 38 40 29 10 12 13 16 18 18 17 19 18 19 14 11 11 15 10 10 9 9 11 25 26 12 9 9 10 11 14 16 11 15 22 23 21 18 18 18 19 19 18 14 13 21 34 32 34 9 12 28 22 21 29 38 46 47 46 20 0 0 0 0 0 0 0 0 0 0 0 0 0 0 0 0 0 0 0 0 0 0 0 0 0 0 0 0 0 0 0 0 0 0 0 0 0 0 0 
0 0 0 0 0 0 0 0 0 0 0 0 0 0 1 42 34 50 39 34 27 30 15 9 7 8 9 16 26 37 40 31 16 13 14 17 19 18 20 18 18 19 21 16 12 10 15 14 10 10 9 19 30 29 28 9 10 11 13 25 14 11 15 22 19 18 18 17 17 17 17 19 18 17 17 28 31 27 11 11 25 22 20 20 35 43 42 46 21 0 0 0 0 0 0 0 0 0 0 0 0 0 0 0 0 0 0 0 0 0 0 0 0 0 0 0 0 0 0 0 0 0 0 0 0 0 0 0 
0 0 0 0 0 0 0 0 0 0 0 0 0 0 3 42 35 45 37 33 27 26 11 9 9 8 8 27 25 37 39 26 17 13 17 17 15 16 17 18 17 17 18 20 15 12 14 22 10 10 10 20 31 29 30 10 9 10 17 23 12 12 18 18 19 19 17 18 17 17 17 18 20 21 21 19 32 30 9 13 24 23 22 19 25 44 48 46 22 0 0 0 0 0 0 0 0 0 0 0 0 0 0 0 0 0 0 0 0 0 0 0 0 0 0 0 0 0 0 0 0 0 0 0 0 0 0 0 
0 0 0 0 0 0 0 0 0 0 0 0 0 0 3 25 25 43 35 35 31 24 10 11 10 9 9 20 24 31 35 19 15 16 17 15 15 16 16 18 17 17 17 17 17 13 11 21 10 10 10 12 8 26 15 13 9 11 22 17 10 16 19 18 18 18 17 17 16 16 16 17 18 20 21 19 17 13 8 12 23 24 22 21 21 34 45 45 22 0 0 0 0 0 0 0 0 0 0 0 0 0 0 0 0 0 0 0 0 0 0 0 0 0 0 0 0 0 0 0 0 0 0 0 0 0 0 0 
0 0 0 0 0 0 0 0 0 0 0 0 0 0 3 26 24 41 34 34 25 20 10 10 10 9 9 19 20 27 30 17 16 16 17 16 15 16 17 17 18 16 18 17 18 15 10 18 18 10 10 10 9 9 9 31 12 12 22 16 12 18 19 18 18 18 18 16 16 15 15 18 18 22 22 18 8 8 7 13 23 24 23 22 19 35 44 44 37 0 0 0 0 0 0 0 0 0 0 0 0 0 0 0 0 0 0 0 0 0 0 0 0 0 0 0 0 0 0 0 0 0 0 0 0 0 0 0 
0 0 0 0 0 0 0 0 0 0 0 0 0 0 4 25 30 42 32 29 21 19 11 10 11 9 10 19 23 26 21 14 16 17 17 17 15 16 17 17 17 16 16 16 16 16 14 13 21 10 11 13 9 10 10 19 8 13 23 13 15 18 17 16 17 18 18 17 16 16 17 17 18 22 18 16 9 7 8 14 21 24 24 23 19 29 39 43 38 0 0 0 0 0 0 0 0 0 0 0 0 0 0 0 0 0 0 0 0 0 0 0 0 0 0 0 0 0 0 0 0 0 0 0 0 0 0 0 
0 0 0 0 0 0 0 0 0 0 0 0 0 0 3 5 47 42 54 22 21 20 11 9 10 9 10 15 23 21 19 13 17 19 19 16 16 16 17 16 16 17 15 16 16 16 16 11 10 9 10 9 10 11 10 9 8 9 20 11 16 19 17 15 17 16 16 16 16 15 17 17 18 19 20 17 9 7 8 17 19 23 22 24 20 21 32 41 39 0 0 0 0 0 0 0 0 0 0 0 0 0 0 0 0 0 0 0 0 0 0 0 0 0 0 0 0 0 0 0 0 0 0 0 0 0 0 0 
0 0 0 0 0 0 0 0 0 0 0 0 0 0 2 6 47 38 23 22 21 21 11 10 10 9 15 16 19 20 19 13 17 20 18 16 16 15 15 15 18 15 15 14 16 16 17 10 11 8 10 10 10 10 9 9 7 7 22 13 15 19 18 16 17 17 16 17 17 17 17 18 20 20 15 20 9 8 7 18 18 23 20 23 20 17 32 39 40 0 0 0 0 0 0 0 0 0 0 0 0 0 0 0 0 0 0 0 0 0 0 0 0 0 0 0 0 0 0 0 0 0 0 0 0 0 0 0 
0 0 0 0 0 0 0 0 0 0 0 0 0 0 17 7 46 36 24 23 23 22 11 11 11 12 17 16 12 24 20 15 18 19 18 15 15 16 16 16 16 16 14 14 16 16 17 10 12 8 8 10 13 11 10 10 10 8 9 13 14 19 18 15 16 15 17 16 17 17 17 18 20 22 18 16 9 7 8 17 21 24 19 23 24 9 33 40 37 0 0 0 0 0 0 0 0 0 0 0 0 0 0 0 0 0 0 0 0 0 0 0 0 0 0 0 0 0 0 0 0 0 0 0 0 0 0 0 
0 0 0 0 0 0 0 0 0 0 0 0 0 0 1 23 45 35 22 24 22 20 13 10 11 18 17 15 12 23 28 22 19 18 17 15 16 16 15 15 16 15 14 14 15 15 14 10 9 8 11 12 11 9 9 9 10 9 9 9 11 14 17 16 16 15 16 16 17 16 16 18 20 20 18 18 14 7 9 18 21 22 21 20 18 9 33 39 37 0 0 0 0 0 0 0 0 0 0 0 0 0 0 0 0 0 0 0 0 0 0 0 0 0 0 0 0 0 0 0 0 0 0 0 0 0 0 0 
0 0 0 0 0 0 0 0 0 0 0 0 0 0 15 40 44 52 23 23 22 22 18 10 15 14 14 13 17 23 28 28 15 16 17 15 15 16 17 15 14 14 13 16 14 10 9 11 10 9 12 11 11 11 9 10 10 10 8 19 9 11 15 17 15 16 16 16 16 16 17 18 18 16 13 11 14 14 11 17 20 22 19 19 16 11 35 41 35 0 0 0 0 0 0 0 0 0 0 0 0 0 0 0 0 0 0 0 0 0 0 0 0 0 0 0 0 0 0 0 0 0 0 0 0 0 0 0 
0 0 0 0 0 0 0 0 0 0 0 0 0 0 14 39 43 38 25 20 21 19 19 10 17 10 13 14 21 23 28 28 13 16 15 17 15 16 15 15 14 15 15 17 12 8 11 13 8 8 11 11 15 10 10 11 10 10 9 17 13 11 10 14 17 18 16 17 17 18 19 16 15 13 10 10 12 19 18 16 19 20 20 22 12 16 36 40 33 0 0 0 0 0 0 0 0 0 0 0 0 0 0 0 0 0 0 0 0 0 0 0 0 0 0 0 0 0 0 0 0 0 0 0 0 0 0 0 
0 0 0 0 0 0 0 0 0 0 0 0 0 0 12 37 24 40 28 21 21 18 20 13 16 9 14 16 20 21 27 23 10 10 12 13 17 17 16 15 15 16 15 12 9 8 19 16 9 10 12 12 10 14 9 12 12 10 10 15 27 12 9 9 11 15 18 18 20 19 19 14 12 11 9 9 16 21 24 12 19 18 19 18 8 17 37 38 29 0 0 0 0 0 0 0 0 0 0 0 0 0 0 0 0 0 0 0 0 0 0 0 0 0 0 0 0 0 0 0 0 0 0 0 0 0 0 0 
0 0 0 0 0 0 0 0 0 0 0 0 0 0 11 36 41 38 65 20 18 21 18 15 14 12 13 18 20 20 21 26 11 10 11 10 15 18 17 16 14 13 9 9 10 19 27 23 9 10 12 12 10 15 11 11 17 10 9 8 29 29 21 8 8 12 14 16 17 18 15 12 10 10 10 17 21 23 25 24 19 17 18 14 7 20 38 36 27 0 0 0 0 0 0 0 0 0 0 0 0 0 0 0 0 0 0 0 0 0 0 0 0 0 0 0 0 0 0 0 0 0 0 0 0 0 0 0 
0 0 0 0 0 0 0 0 0 0 0 0 0 0 9 32 39 29 30 24 18 19 13 17 14 12 11 30 22 22 17 28 17 10 9 9 11 17 16 14 9 11 10 13 25 28 27 16 9 10 12 15 10 16 9 14 23 11 10 8 14 22 33 27 26 24 18 15 16 17 11 10 9 9 12 37 26 25 26 28 19 17 19 14 9 25 38 35 25 0 0 0 0 0 0 0 0 0 0 0 0 0 0 0 0 0 0 0 0 0 0 0 0 0 0 0 0 0 0 0 0 0 0 0 0 0 0 0 
0 0 0 0 0 0 0 0 0 0 0 0 0 0 7 28 39 38 29 25 20 17 17 17 12 12 10 17 21 23 25 31 27 14 9 10 9 11 10 11 12 22 32 9 10 10 10 9 8 10 12 19 10 15 10 16 23 15 9 9 7 31 31 27 28 35 31 37 34 21 17 15 16 21 22 29 24 19 24 43 28 17 14 11 26 35 38 32 14 0 0 0 0 0 0 0 0 0 0 0 0 0 0 0 0 0 0 0 0 0 0 0 0 0 0 0 0 0 0 0 0 0 0 0 0 0 0 0 
0 0 0 0 0 0 0 0 0 0 0 0 0 0 4 26 37 38 24 27 64 17 20 13 15 12 10 19 21 23 25 24 42 40 12 8 8 12 37 35 25 9 9 10 9 9 13 22 9 10 18 21 11 15 10 12 11 11 10 25 37 30 26 26 27 29 34 54 31 28 51 40 34 52 28 33 60 19 33 40 20 17 14 16 26 30 33 32 12 0 0 0 0 0 0 0 0 0 0 0 0 0 0 0 0 0 0 0 0 0 0 0 0 0 0 0 0 0 0 0 0 0 0 0 0 0 0 0 
0 0 0 0 0 0 0 0 0 0 0 0 0 0 2 21 34 39 37 28 63 18 19 15 16 13 12 22 21 20 22 43 43 31 27 24 33 27 28 27 27 17 10 9 9 9 9 18 9 10 21 19 11 17 16 11 9 8 12 31 36 31 26 24 37 43 44 44 26 26 28 22 6 9 27 20 28 42 38 37 18 11 15 29 33 41 31 30 12 0 0 0 0 0 0 0 0 0 0 0 0 0 0 0 0 0 0 0 0 0 0 0 0 0 0 0 0 0 0 0 0 0 0 0 0 0 0 0 
0 0 0 0 0 0 0 0 0 0 0 0 0 1 3 16 32 37 42 31 24 20 18 18 15 14 14 19 24 19 21 23 30 33 46 25 33 35 38 33 25 20 17 8 7 9 7 7 10 7 10 12 10 21 16 9 8 9 24 17 24 30 29 34 34 42 57 32 25 22 34 22 6 16 15 30 30 35 42 39 29 19 31 42 40 35 28 30 10 0 0 0 0 0 0 0 0 0 0 0 0 0 0 0 0 0 0 0 0 0 0 0 0 0 0 0 0 0 0 0 0 0 0 0 0 0 0 0 
0 0 0 0 0 0 0 0 0 0 0 0 0 1 3 1 18 36 42 37 27 20 15 18 16 17 27 34 26 22 54 37 34 38 53 31 31 31 29 27 28 21 20 12 9 8 7 6 23 7 9 10 8 31 17 10 10 11 7 7 32 29 27 33 34 41 37 35 31 34 35 4 3 4 4 22 31 45 157 42 44 47 32 39 49 34 30 30 5 0 0 0 0 0 0 0 0 0 0 0 0 0 0 0 0 0 0 0 0 0 0 0 0 0 0 0 0 0 0 0 0 0 0 0 0 0 0 0 
0 0 0 0 0 0 0 0 0 0 0 0 0 1 3 2 17 36 42 49 34 38 22 19 19 26 30 28 25 23 27 44 42 37 31 27 24 24 24 24 26 28 22 20 13 8 6 7 6 8 10 9 8 37 9 9 12 9 7 8 29 27 26 26 28 33 27 32 33 40 25 4 4 4 5 18 36 37 39 46 41 51 38 46 41 31 37 23 1 0 0 0 0 0 0 0 0 0 0 0 0 0 0 0 0 0 0 0 0 0 0 0 0 0 0 0 0 0 0 0 0 0 0 0 0 0 0 0 
0 0 0 0 0 0 0 0 0 0 0 0 0 0 2 3 13 35 38 40 43 46 47 77 27 25 35 59 27 25 27 44 38 53 35 19 19 25 31 29 29 30 27 23 20 10 5 4 7 8 10 10 10 20 23 11 11 11 9 9 18 30 26 24 26 22 17 25 30 32 10 7 6 5 5 19 32 35 39 30 27 21 27 28 30 31 30 24 2 1 0 0 0 0 0 0 0 0 0 0 0 0 0 0 0 0 0 0 0 0 0 0 0 0 0 0 0 0 0 0 0 0 0 0 0 0 0 0 
0 0 0 0 0 0 0 0 0 0 0 0 0 0 2 2 4 29 38 39 41 51 43 46 33 37 51 66 50 24 20 20 22 46 42 33 33 36 45 26 27 27 32 28 23 17 6 5 9 10 12 11 9 22 8 9 10 13 16 37 34 24 25 30 28 19 24 26 32 17 7 7 6 5 14 31 37 35 37 37 29 4 1 28 30 31 31 17 2 1 0 0 0 0 0 0 0 0 0 0 0 0 0 0 0 0 0 0 0 0 0 0 0 0 0 0 0 0 0 0 0 0 0 0 0 0 0 0 
0 0 0 0 0 0 0 0 0 0 0 0 0 0 0 1 2 24 40 38 39 41 42 34 43 23 17 31 38 33 18 19 18 37 45 39 36 32 28 33 29 24 27 28 28 22 18 6 15 24 13 13 11 8 9 9 9 15 24 23 50 23 28 23 17 17 23 34 35 33 25 25 30 31 33 38 37 41 32 31 25 2 0 0 16 33 35 7 1 2 0 0 0 0 0 0 0 0 0 0 0 0 0 0 0 0 0 0 0 0 0 0 0 0 0 0 0 0 0 0 0 0 0 0 0 0 0 0 
0 0 0 0 0 0 0 0 0 0 0 0 0 0 0 0 0 0 37 38 35 34 34 28 16 15 17 28 33 35 30 13 8 12 29 44 36 31 23 27 32 31 28 26 24 22 29 18 24 28 21 12 11 11 9 8 9 10 18 30 33 19 21 22 21 11 18 29 26 30 28 31 31 105 124 114 44 44 37 20 6 2 0 0 0 0 0 2 2 3 4 0 0 0 0 0 0 0 0 0 0 0 0 0 0 0 0 0 0 0 0 0 0 0 0 0 0 0 0 0 0 0 0 0 0 0 0 0 
0 0 0 0 0 0 0 0 0 0 0 0 0 0 0 0 0 0 16 36 35 32 23 20 19 27 20 28 34 40 37 23 7 13 25 44 39 34 25 17 16 21 29 26 20 21 23 27 17 13 12 11 11 12 18 9 12 11 27 23 15 11 16 25 27 13 10 11 12 13 23 32 34 36 115 42 47 43 36 7 3 0 0 0 0 0 0 0 0 4 4 0 0 0 0 0 0 0 0 0 0 0 0 0 0 0 0 0 0 0 0 0 0 0 0 0 0 0 0 0 0 0 0 0 0 0 0 0 
0 0 0 0 0 0 0 0 0 0 0 0 0 0 0 0 0 0 0 16 32 29 1 7 6 29 28 26 68 40 37 33 12 23 32 30 38 41 29 11 9 21 18 14 16 17 19 26 13 11 11 11 12 16 27 19 12 12 19 17 9 26 23 24 33 21 12 12 12 13 20 25 158 32 35 40 41 38 43 18 0 0 1 0 0 0 0 0 0 0 0 0 0 0 0 0 0 0 0 0 0 0 0 0 0 0 0 0 0 0 0 0 0 0 0 0 0 0 0 0 0 0 0 0 0 0 0 0 
0 0 0 0 0 0 0 0 0 0 0 0 0 0 0 0 0 0 0 2 1 0 0 0 3 10 44 60 36 38 41 30 49 26 18 10 11 15 25 10 12 19 14 23 25 19 21 31 12 8 12 14 19 27 26 24 24 18 19 32 27 25 23 11 22 25 17 13 14 22 24 26 27 29 34 42 44 46 45 40 0 0 1 0 0 0 0 0 0 0 0 0 0 0 0 0 0 0 0 0 0 0 0 0 0 0 0 0 0 0 0 0 0 0 0 0 0 0 0 0 0 0 0 0 0 0 0 0 
0 0 0 0 0 0 0 0 0 0 0 0 0 0 0 0 0 0 0 28 18 0 0 0 0 35 36 37 37 39 38 34 23 79 29 13 10 11 13 12 25 32 29 29 27 36 31 43 17 19 38 37 37 45 37 26 23 26 29 34 36 39 28 10 13 25 25 16 19 30 30 24 24 26 70 38 45 45 45 41 32 0 0 0 0 0 0 0 0 0 0 0 0 0 0 0 0 0 0 0 0 0 0 0 0 0 0 0 0 0 0 0 0 0 0 0 0 0 0 0 0 0 0 0 0 0 0 0 
0 0 0 0 0 0 0 0 0 0 0 0 0 0 0 0 0 0 0 12 34 16 0 0 37 41 43 39 40 39 40 116 31 30 28 32 29 16 15 20 35 33 31 31 18 31 39 40 24 28 31 30 29 25 24 13 9 9 21 38 42 42 40 51 18 24 49 33 37 32 29 26 23 25 20 25 40 45 41 33 30 14 0 0 0 0 0 0 0 0 0 0 0 0 0 0 0 0 0 0 0 0 0 0 0 0 0 0 0 0 0 0 0 0 0 0 0 0 0 0 0 0 0 0 0 0 0 0 
0 0 0 0 0 0 0 0 0 0 0 0 0 0 0 0 0 0 0 4 24 28 29 31 37 40 40 43 43 38 39 78 118 31 30 31 31 74 53 33 56 40 43 33 25 35 38 40 28 27 28 29 29 41 41 40 40 16 26 41 44 38 40 64 61 34 33 39 38 27 26 24 18 20 21 10 39 43 36 28 28 26 28 24 1 0 0 0 0 0 0 0 0 0 0 0 0 0 0 0 0 0 0 0 0 0 0 0 0 0 0 0 0 0 0 0 0 0 0 0 0 0 0 0 0 0 0 0 
0 0 0 0 0 0 0 0 0 0 0 0 1 2 0 0 0 0 0 5 14 30 32 29 32 36 43 45 45 33 31 29 96 69 30 32 29 28 67 73 36 41 46 45 46 70 75 53 31 25 40 39 37 41 42 40 42 42 51 39 53 28 30 33 48 46 44 45 38 27 20 19 17 11 10 8 25 44 30 28 24 21 28 25 4 0 0 0 0 0 0 0 0 0 0 0 0 0 0 0 0 0 0 0 0 0 0 0 0 0 0 0 0 0 0 0 0 0 0 0 0 0 0 0 0 0 0 0 
0 0 0 0 0 0 0 0 0 0 0 0 1 2 2 1 0 0 2 4 4 18 32 31 31 31 37 39 39 27 11 15 24 48 30 69 29 29 29 30 33 87 43 44 45 44 71 33 47 38 45 46 47 45 44 36 36 35 31 76 34 36 21 44 42 45 43 43 40 27 25 18 10 8 10 7 48 47 31 26 21 12 23 16 5 3 0 0 0 0 0 0 0 0 0 0 0 0 0 0 0 0 0 0 0 0 0 0 0 0 0 0 0 0 0 0 0 0 0 0 0 0 0 0 0 0 0 0 
0 0 0 0 0 0 0 0 0 0 0 0 0 1 2 1 2 1 2 2 2 6 33 33 30 34 32 39 39 20 8 9 11 11 13 28 30 21 24 55 29 35 37 38 43 43 39 32 50 42 42 46 46 46 39 29 29 34 35 32 30 41 23 30 41 40 41 36 30 25 24 18 9 8 11 2 23 42 33 27 12 2 5 4 3 3 2 0 0 0 2 2 1 0 0 0 0 0 0 0 0 0 0 0 0 0 0 0 0 0 0 0 0 0 0 0 0 0 0 0 0 0 0 0 0 0 0 0 
0 0 0 0 0 0 0 0 0 0 0 0 0 2 1 2 1 2 1 2 2 1 0 31 31 28 36 36 18 1 2 6 7 11 10 11 11 15 22 32 31 52 24 34 41 37 33 49 41 42 47 47 44 48 44 37 32 36 36 58 49 42 36 34 33 38 33 32 38 22 16 4 18 37 38 2 33 24 15 15 16 11 4 4 1 2 2 2 2 2 1 1 1 0 0 0 0 0 0 0 0 0 0 0 0 0 0 0 0 0 0 0 0 0 0 0 0 0 0 0 0 0 0 0 0 0 0 0 
0 0 0 0 0 0 0 0 0 0 0 0 0 0 2 1 1 1 1 1 2 3 6 13 23 30 37 34 12 9 11 28 20 24 19 15 21 16 11 9 16 33 34 31 30 31 41 44 42 46 43 17 12 47 32 42 42 44 44 59 50 41 33 43 42 37 7 37 36 35 34 30 24 37 22 11 12 13 7 0 0 1 6 4 0 0 0 2 1 1 1 0 0 0 0 0 0 0 0 0 0 0 0 0 0 0 0 0 0 0 0 0 0 0 0 0 0 0 0 0 0 0 0 0 0 0 0 0 
0 0 0 0 0 0 0 0 0 0 0 0 0 0 1 1 2 0 0 1 2 3 5 14 16 18 17 7 0 0 1 1 0 3 19 22 20 20 9 12 33 39 46 54 53 52 71 64 48 49 50 51 30 10 8 11 38 50 51 54 53 67 60 48 63 49 13 26 8 37 38 37 28 22 18 21 21 19 1 0 0 0 4 7 0 0 0 0 0 2 1 0 0 0 0 0 0 0 0 0 0 0 0 0 0 0 0 0 0 0 0 0 0 0 0 0 0 0 0 0 0 0 0 0 0 0 0 0 
0 0 0 0 0 0 0 0 0 0 0 0 0 0 0 2 1 0 0 0 4 8 7 6 8 5 0 1 0 0 0 0 0 0 3 20 18 31 42 44 51 43 30 49 32 32 41 50 5 21 47 65 42 37 36 35 37 35 46 43 44 50 53 37 66 55 41 40 40 38 31 27 24 16 18 23 3 0 0 0 0 0 7 5 0 0 0 0 0 0 0 0 0 0 0 0 0 0 0 0 0 0 0 0 0 0 0 0 0 0 0 0 0 0 0 0 0 0 0 0 0 0 0 0 0 0 0 0 
0 0 0 0 0 0 0 0 0 0 0 0 0 0 0 0 2 2 2 1 2 2 2 2 7 9 2 0 0 1 1 10 2 1 7 12 14 11 8 9 22 32 41 48 41 38 35 26 34 28 23 32 32 27 25 23 23 26 27 24 24 26 21 33 32 17 6 7 9 11 12 16 22 14 13 11 10 1 5 1 1 1 6 1 0 0 2 2 0 0 0 0 0 0 0 0 0 0 0 0 0 0 0 0 0 0 0 0 0 0 0 0 0 0 0 0 0 0 0 0 0 0 0 0 0 0 0 0 
0 0 0 0 0 0 0 0 0 0 0 0 0 0 0 0 0 1 1 0 0 0 1 2 2 2 1 3 1 1 2 14 8 2 1 7 13 14 12 8 10 18 16 16 17 21 20 14 18 21 23 23 22 22 22 23 22 14 18 19 19 17 9 11 13 19 7 16 26 26 10 12 17 15 14 11 1 1 2 1 2 2 4 0 0 0 0 0 0 0 0 0 0 0 0 0 0 0 0 0 0 0 0 0 0 0 0 0 0 0 0 0 0 0 0 0 0 0 0 0 0 0 0 0 0 0 0 0 
0 0 0 0 0 0 0 0 0 0 0 0 0 0 0 0 0 0 0 0 0 0 1 2 4 5 4 10 7 5 2 9 7 12 13 20 26 41 46 30 34 38 22 18 16 19 23 18 13 19 22 18 17 19 19 20 25 24 26 26 29 31 32 30 27 36 20 16 29 40 16 12 21 21 9 6 10 4 3 3 2 2 1 0 0 0 0 0 0 0 0 0 0 0 0 0 0 0 0 0 0 0 0 0 0 0 0 0 0 0 0 0 0 0 0 0 0 0 0 0 0 0 0 0 0 0 0 0 
0 0 0 0 0 0 0 0 0 0 0 0 0 0 0 0 0 0 0 0 0 0 0 2 3 2 8 9 19 41 20 16 19 23 27 25 13 32 49 36 35 39 42 17 22 13 21 41 36 27 25 31 30 26 24 27 27 23 24 48 27 22 33 33 8 38 30 30 26 33 26 8 11 9 2 4 0 0 0 0 0 0 0 0 0 0 0 0 0 0 0 0 0 0 0 0 0 0 0 0 0 0 0 0 0 0 0 0 0 0 0 0 0 0 0 0 0 0 0 0 0 0 0 0 0 0 0 0 
0 0 0 0 0 0 0 0 0 0 0 0 0 0 0 0 0 0 0 0 0 0 0 1 1 0 1 9 15 23 24 17 22 23 24 23 35 19 18 20 39 9 30 43 44 48 45 52 44 39 38 36 34 39 42 37 37 37 32 31 18 23 31 35 43 40 24 32 17 37 35 33 28 20 16 11 20 8 0 0 0 0 0 0 0 0 0 0 0 0 0 0 0 0 0 0 0 0 0 0 0 0 0 0 0 0 0 0 0 0 0 0 0 0 0 0 0 0 0 0 0 0 0 0 0 0 0 0 
0 0 0 0 0 0 0 0 0 0 0 0 0 0 0 0 0 0 0 0 0 0 0 0 1 2 6 6 13 21 30 19 30 13 9 13 9 25 7 22 17 7 22 24 26 27 32 38 53 89 34 32 33 31 30 30 36 33 42 36 14 12 23 30 26 37 34 35 29 39 25 15 10 3 4 5 1 0 0 0 0 0 1 0 0 0 0 0 0 0 0 0 0 0 0 0 0 0 0 0 0 0 0 0 0 0 0 0 0 0 0 0 0 0 0 0 0 0 0 0 0 0 0 0 0 0 0 0 
0 0 0 0 0 0 0 0 0 0 0 0 0 0 0 0 0 0 0 0 0 0 0 0 1 3 3 2 3 3 2 18 11 7 2 10 15 14 4 5 4 11 21 23 29 27 31 27 33 33 17 23 22 23 14 24 17 18 21 22 22 29 16 15 27 33 35 6 33 30 25 17 13 13 15 5 2 3 3 3 0 1 1 0 0 0 0 0 0 0 0 0 0 0 0 0 0 0 0 0 0 0 0 0 0 0 0 0 0 0 0 0 0 0 0 0 0 0 0 0 0 0 0 0 0 0 0 0 
0 0 0 0 0 0 0 0 0 0 0 0 0 0 0 0 0 0 0 0 0 0 0 1 3 2 3 2 1 3 2 11 22 11 2 6 8 8 9 11 9 28 29 24 26 27 23 19 26 31 15 16 19 23 22 21 23 21 18 16 11 26 31 22 30 18 28 35 27 27 19 17 12 15 22 2 2 2 2 1 3 2 1 0 0 0 0 0 0 0 0 0 0 0 0 0 0 0 0 0 0 0 0 0 0 0 0 0 0 0 0 0 0 0 0 0 0 0 0 0 0 0 0 0 0 0 0 0 
0 0 0 0 0 0 0 0 0 0 0 0 0 0 0 0 0 0 0 0 0 0 0 0 2 1 4 4 1 3 3 12 23 11 6 9 9 6 10 12 12 23 24 17 24 53 29 14 23 30 19 12 13 16 18 18 18 17 12 8 10 26 32 25 43 26 23 30 23 16 15 13 8 1 14 2 2 9 4 1 2 2 1 0 0 0 0 0 0 0 0 0 0 0 0 0 0 0 0 0 0 0 0 0 0 0 0 0 0 0 0 0 0 0 0 0 0 0 0 0 0 0 0 0 0 0 0 0 
0 0 0 0 0 0 0 0 0 0 0 0 0 0 0 0 0 0 0 0 0 0 0 0 2 2 3 3 1 2 4 11 22 2 5 9 7 9 11 14 21 19 17 20 18 22 26 30 33 36 18 13 12 13 13 13 14 13 11 7 12 27 25 15 35 17 15 28 29 23 13 12 6 0 1 1 2 4 5 2 2 2 1 0 0 0 0 0 0 0 0 0 0 0 0 0 0 0 0 0 0 0 0 0 0 0 0 0 0 0 0 0 0 0 0 0 0 0 0 0 0 0 0 0 0 0 0 0 
0 0 0 0 0 0 0 0 0 0 0 0 0 0 0 0 0 0 0 0 0 0 0 0 1 2 2 4 2 2 1 3 13 2 2 7 4 8 13 19 16 20 46 28 21 22 23 28 36 17 11 11 12 13 12 12 12 12 11 9 10 24 29 30 24 23 17 12 22 26 17 9 5 0 1 1 2 6 6 3 1 1 0 0 0 0 0 0 0 0 0 0 0 0 0 0 0 0 0 0 0 0 0 0 0 0 0 0 0 0 0 0 0 0 0 0 0 0 0 0 0 0 0 0 0 0 0 0 
0 0 0 0 0 0 0 0 0 0 0 0 0 0 0 0 0 0 0 0 0 0 0 0 0 2 2 2 5 6 2 3 2 1 0 3 3 4 14 15 19 14 16 21 43 21 19 14 8 6 8 11 12 13 12 10 11 10 11 9 7 10 29 44 26 52 33 11 13 20 19 9 6 0 1 1 2 5 5 2 1 2 1 0 0 0 0 0 0 0 0 0 0 0 0 0 0 0 0 0 0 0 0 0 0 0 0 0 0 0 0 0 0 0 0 0 0 0 0 0 0 0 0 0 0 0 0 0 
0 0 0 0 0 0 0 0 0 0 0 0 0 0 0 0 0 0 0 0 0 0 0 0 0 0 2 2 2 5 4 1 4 0 0 2 3 0 12 17 16 21 14 18 33 20 20 13 9 8 10 12 11 12 15 12 11 11 11 8 6 8 10 25 27 21 16 14 26 14 16 16 8 1 2 1 2 4 4 1 2 1 1 0 0 0 0 0 0 0 0 0 0 0 0 0 0 0 0 0 0 0 0 0 0 0 0 0 0 0 0 0 0 0 0 0 0 0 0 0 0 0 0 0 0 0 0 0 
0 0 0 0 0 0 0 0 0 0 0 0 0 0 0 0 0 0 0 0 0 0 0 0 0 0 2 2 2 2 2 1 2 2 0 1 4 4 16 15 14 22 14 24 13 20 21 13 9 17 30 22 15 19 20 17 15 12 11 9 6 6 7 32 23 37 15 14 19 14 19 18 7 1 4 1 1 2 2 3 2 2 0 0 0 0 0 0 0 0 0 0 0 0 0 0 0 0 0 0 0 0 0 0 0 0 0 0 0 0 0 0 0 0 0 0 0 0 0 0 0 0 0 0 0 0 0 0 
0 0 0 0 0 0 0 0 0 0 0 0 0 0 0 0 0 0 0 0 0 0 0 0 0 0 2 1 1 1 2 1 1 1 0 0 3 13 17 18 14 24 23 19 14 17 19 12 9 14 17 17 16 18 16 14 14 11 10 10 7 4 10 24 40 18 27 14 13 14 18 22 5 1 3 1 0 2 2 2 2 2 0 0 0 0 0 0 0 0 0 0 0 0 0 0 0 0 0 0 0 0 0 0 0 0 0 0 0 0 0 0 0 0 0 0 0 0 0 0 0 0 0 0 0 0 0 0 
0 0 0 0 0 0 0 0 0 0 0 0 0 0 0 0 0 0 0 0 0 0 0 0 0 0 0 2 1 1 1 2 4 1 1 0 0 14 20 18 17 10 5 9 14 15 18 10 10 20 17 17 20 22 19 20 15 11 11 11 10 19 29 23 21 19 19 13 11 15 22 23 2 1 4 1 1 2 2 2 2 1 0 0 0 0 0 0 0 0 0 0 0 0 0 0 0 0 0 0 0 0 0 0 0 0 0 0 0 0 0 0 0 0 0 0 0 0 0 0 0 0 0 0 0 0 0 0 
0 0 0 0 0 0 0 0 0 0 0 0 0 0 0 0 0 0 0 0 0 0 0 0 0 0 0 0 1 1 2 2 2 2 0 2 0 3 18 23 20 13 9 16 18 15 16 9 8 11 11 15 19 19 18 17 16 14 11 13 15 26 27 21 30 19 24 16 16 23 26 19 1 1 1 2 3 2 4 2 2 2 1 0 0 0 0 0 0 0 0 0 0 0 0 0 0 0 0 0 0 0 0 0 0 0 0 0 0 0 0 0 0 0 0 0 0 0 0 0 0 0 0 0 0 0 0 0 
0 0 0 0 0 0 0 0 0 0 0 0 0 0 0 0 0 0 0 0 0 0 0 0 0 0 0 0 1 1 1 1 1 3 1 0 1 0 3 22 23 21 18 22 23 27 13 9 9 8 21 15 19 19 17 16 17 14 12 13 18 28 23 23 23 21 28 28 21 26 26 14 1 0 1 2 4 4 2 2 2 2 1 0 0 0 0 0 0 0 0 0 0 0 0 0 0 0 0 0 0 0 0 0 0 0 0 0 0 0 0 0 0 0 0 0 0 0 0 0 0 0 0 0 0 0 0 0 
0 0 0 0 0 0 0 0 0 0 0 0 0 0 0 0 0 0 0 0 0 0 0 0 0 0 0 0 0 1 1 1 1 2 3 0 0 0 0 11 19 24 26 28 26 16 12 10 10 9 19 21 19 17 17 16 16 14 12 11 18 28 30 27 26 39 30 29 28 22 16 2 1 0 0 2 5 2 2 2 2 2 1 0 0 0 0 0 0 0 0 0 0 0 0 0 0 0 0 0 0 0 0 0 0 0 0 0 0 0 0 0 0 0 0 0 0 0 0 0 0 0 0 0 0 0 0 0 
0 0 0 0 0 0 0 0 0 0 0 0 0 0 0 0 0 0 0 0 0 0 0 0 0 0 0 0 0 1 0 2 1 2 3 2 0 0 0 0 10 16 23 27 27 24 12 10 10 17 27 28 18 16 14 26 25 25 26 18 10 9 30 31 31 26 29 27 22 13 8 1 1 0 0 3 4 2 2 2 2 2 0 0 0 0 0 0 0 0 0 0 0 0 0 0 0 0 0 0 0 0 0 0 0 0 0 0 0 0 0 0 0 0 0 0 0 0 0 0 0 0 0 0 0 0 0 0 
0 0 0 0 0 0 0 0 0 0 0 0 0 0 0 0 0 0 0 0 0 0 0 0 0 0 0 0 0 2 0 1 1 2 2 1 1 0 0 0 5 9 25 28 12 6 10 10 11 9 30 30 27 25 22 22 22 25 27 24 27 11 11 31 29 16 15 13 12 11 1 1 2 0 0 3 3 3 2 2 2 2 0 0 0 0 0 0 0 0 0 0 0 0 0 0 0 0 0 0 0 0 0 0 0 0 0 0 0 0 0 0 0 0 0 0 0 0 0 0 0 0 0 0 0 0 0 0 
0 0 0 0 0 0 0 0 0 0 0 0 0 0 0 0 0 0 0 0 0 0 0 0 0 0 0 0 0 0 1 0 1 2 2 3 3 1 2 0 5 9 8 5 2 5 7 10 9 16 25 26 28 26 19 24 24 25 26 28 29 11 9 11 16 18 19 15 13 6 1 1 2 1 0 2 3 2 2 2 2 1 0 0 0 0 0 0 0 0 0 0 0 0 0 0 0 0 0 0 0 0 0 0 0 0 0 0 0 0 0 0 0 0 0 0 0 0 0 0 0 0 0 0 0 0 0 0 
